<svg width="41" height="41" viewBox="0 0 41 41" fill="none" xmlns="http://www.w3.org/2000/svg">
<path d="M27.6578 3.41669H13.3419C7.12359 3.41669 3.4165 7.12377 3.4165 13.3421V27.6409C3.4165 33.8763 7.12359 37.5834 13.3419 37.5834H27.6407C33.859 37.5834 37.5661 33.8763 37.5661 27.6579V13.3421C37.5832 7.12377 33.8761 3.41669 27.6578 3.41669ZM30.7498 21.7813H13.3419L18.484 26.9234C18.9794 27.4188 18.9794 28.2388 18.484 28.7342C18.2278 28.9904 17.9032 29.11 17.5786 29.11C17.254 29.11 16.9294 28.9904 16.6732 28.7342L9.34442 21.4054C9.10525 21.1663 8.96859 20.8417 8.96859 20.5C8.96859 20.1584 9.10525 19.8338 9.34442 19.5946L16.6732 12.2659C17.1686 11.7704 17.9886 11.7704 18.484 12.2659C18.9794 12.7613 18.9794 13.5813 18.484 14.0767L13.3419 19.2188H30.7498C31.4503 19.2188 32.0311 19.7996 32.0311 20.5C32.0311 21.2004 31.4503 21.7813 30.7498 21.7813Z" fill="#EB1D36"/>
</svg>
