<svg width="12" height="16" viewBox="0 0 12 16" fill="none" xmlns="http://www.w3.org/2000/svg">
<g clip-path="url(#clip0_1334_7403)">
<path d="M5.45604 15.2509C5.38287 15.2509 5.31222 15.2243 5.25723 15.1761C5.04595 14.9881 0.0595703 10.5461 0.0595703 6.26721C0.0595703 4.83766 0.628176 3.46666 1.6403 2.45581C2.65242 1.44496 4.02516 0.877075 5.45652 0.877075C6.88787 0.877075 8.26061 1.44496 9.27274 2.45581C10.2848 3.46666 10.8535 4.83766 10.8535 6.26721C10.8535 10.5461 5.86709 14.9881 5.65484 15.1761C5.59986 15.2243 5.5292 15.2509 5.45604 15.2509ZM5.45604 1.47609C4.18414 1.47735 2.96469 1.98254 2.06532 2.88078C1.16596 3.77901 0.660129 4.99691 0.658858 6.26721C0.658858 9.81619 4.52733 13.6683 5.45604 14.543C6.38474 13.6683 10.2532 9.81139 10.2532 6.26721C10.252 4.99691 9.74613 3.77901 8.84675 2.88078C7.94738 1.98254 6.72794 1.47735 5.45604 1.47609Z" fill="#EEEEEE"/>
<path d="M5.45588 9.26185C4.86286 9.26185 4.28315 9.08622 3.79008 8.75717C3.297 8.42812 2.9127 7.96044 2.68576 7.41325C2.45882 6.86607 2.39944 6.26396 2.51513 5.68307C2.63082 5.10217 2.91639 4.56859 3.33571 4.14979C3.75504 3.73099 4.2893 3.44579 4.87093 3.33025C5.45255 3.2147 6.05542 3.274 6.6033 3.50065C7.15118 3.72731 7.61946 4.11113 7.94892 4.60358C8.27838 5.09604 8.45423 5.67501 8.45423 6.26728C8.45347 7.06125 8.13733 7.82249 7.57519 8.38392C7.01305 8.94535 6.25085 9.26109 5.45588 9.26185ZM5.45588 3.87219C4.98101 3.87219 4.5168 4.01283 4.12195 4.27633C3.72711 4.53981 3.41937 4.91433 3.23765 5.35249C3.05592 5.79067 3.00837 6.27281 3.10102 6.73798C3.19366 7.20313 3.42233 7.63041 3.75812 7.96577C4.0939 8.30113 4.52172 8.52951 4.98747 8.62203C5.45321 8.71457 5.93597 8.66708 6.3747 8.48558C6.81341 8.30408 7.1884 7.99673 7.45222 7.60239C7.71605 7.20804 7.85687 6.74442 7.85687 6.27015C7.85699 5.95517 7.79498 5.64324 7.67438 5.3522C7.55377 5.06116 7.37694 4.79669 7.15397 4.57392C6.93101 4.35114 6.66628 4.17443 6.37492 4.05386C6.08355 3.93329 5.77126 3.87123 5.45588 3.87123V3.87219Z" fill="#EEEEEE"/>
</g>
<defs>
<clipPath id="clip0_1334_7403">
<rect width="11.5248" height="14.3878" fill="white" transform="translate(0.0595703 0.877563)"/>
</clipPath>
</defs>
</svg>
