<svg width="17" height="17" viewBox="0 0 17 17" fill="none" xmlns="http://www.w3.org/2000/svg">
<rect width="17" height="17" fill="white"/>
<path d="M8.50331 4.68159C6.39159 4.68159 4.68827 6.38491 4.68827 8.49663C4.68827 10.6083 6.39159 12.3117 8.50331 12.3117C10.615 12.3117 12.3183 10.6083 12.3183 8.49663C12.3183 6.38491 10.615 4.68159 8.50331 4.68159ZM8.50331 10.9769C7.13866 10.9769 6.02303 9.8646 6.02303 8.49663C6.02303 7.12866 7.13534 6.01636 8.50331 6.01636C9.87128 6.01636 10.9836 7.12866 10.9836 8.49663C10.9836 9.8646 9.86796 10.9769 8.50331 10.9769ZM13.3642 4.52554C13.3642 5.02026 12.9658 5.41538 12.4744 5.41538C11.9797 5.41538 11.5846 5.01694 11.5846 4.52554C11.5846 4.03413 11.983 3.63569 12.4744 3.63569C12.9658 3.63569 13.3642 4.03413 13.3642 4.52554ZM15.891 5.42866C15.8346 4.23667 15.5623 3.18081 14.6891 2.31089C13.8191 1.44097 12.7633 1.1687 11.5713 1.10894C10.3428 1.03921 6.66053 1.03921 5.43202 1.10894C4.24335 1.16538 3.18749 1.43765 2.31425 2.30757C1.441 3.17749 1.17206 4.23335 1.11229 5.42534C1.04257 6.65386 1.04257 10.3361 1.11229 11.5646C1.16874 12.7566 1.441 13.8125 2.31425 14.6824C3.18749 15.5523 4.24003 15.8246 5.43202 15.8843C6.66053 15.9541 10.3428 15.9541 11.5713 15.8843C12.7633 15.8279 13.8191 15.5556 14.6891 14.6824C15.559 13.8125 15.8312 12.7566 15.891 11.5646C15.9607 10.3361 15.9607 6.65718 15.891 5.42866ZM14.3039 12.8828C14.0449 13.5335 13.5435 14.0349 12.8894 14.2972C11.9099 14.6857 9.58573 14.596 8.50331 14.596C7.42089 14.596 5.09335 14.6824 4.11718 14.2972C3.46639 14.0382 2.96503 13.5369 2.70272 12.8828C2.31425 11.9033 2.40389 9.57905 2.40389 8.49663C2.40389 7.41421 2.31757 5.08667 2.70272 4.1105C2.96171 3.45972 3.46307 2.95835 4.11718 2.69604C5.09667 2.30757 7.42089 2.39722 8.50331 2.39722C9.58573 2.39722 11.9133 2.31089 12.8894 2.69604C13.5402 2.95503 14.0416 3.4564 14.3039 4.1105C14.6924 5.08999 14.6027 7.41421 14.6027 8.49663C14.6027 9.57905 14.6924 11.9066 14.3039 12.8828Z" fill="#EB1D36"/>
</svg>
