<svg width="17" height="17" viewBox="0 0 17 17" fill="none" xmlns="http://www.w3.org/2000/svg">
<rect width="17" height="17" fill="white"/>
<path d="M4.46223 13H2.1817V5.65586H4.46223V13ZM3.32074 4.65405C2.5915 4.65405 2 4.05002 2 3.32077C2 2.97048 2.13915 2.63454 2.38683 2.38684C2.63452 2.13915 2.97046 2 3.32074 2C3.67102 2 4.00695 2.13915 4.25464 2.38684C4.50232 2.63454 4.64147 2.97048 4.64147 3.32077C4.64147 4.05002 4.04973 4.65405 3.32074 4.65405ZM12.9975 13H10.7219V9.42492C10.7219 8.57289 10.7047 7.48023 9.53623 7.48023C8.35054 7.48023 8.16884 8.40592 8.16884 9.36353V13H5.89076V5.65586H8.07799V6.65767H8.10991C8.41437 6.08065 9.1581 5.47171 10.2677 5.47171C12.5757 5.47171 13 6.99161 13 8.96576V13H12.9975Z" fill="#EB1D36"/>
</svg>
