<svg width="56" height="56" viewBox="0 0 56 56" fill="none" xmlns="http://www.w3.org/2000/svg">
<mask id="mask0_55_272" style="mask-type:alpha" maskUnits="userSpaceOnUse" x="5" y="2" width="46" height="52">
<path d="M10.5 51.3334L28 25.6667M45.5 51.3334L28 25.6667" stroke="white" stroke-width="4" stroke-linecap="round"/>
<path d="M10.654 28C10.5512 27.2265 10.4998 26.447 10.5 25.6667C10.4966 23.0212 11.0951 20.4097 12.25 18.0297M13.0153 34.7118C14.2664 36.7825 15.9327 38.5716 17.9093 39.9665C19.8859 41.3614 22.1299 42.3318 24.5 42.8167M31.5 42.8167C33.8953 42.3264 36.1615 41.3403 38.1529 39.9217C40.1443 38.5032 41.8168 36.6836 43.0628 34.58M45.346 28C45.4475 27.237 45.5 26.4577 45.5 25.6667C45.5038 23.0212 44.9054 20.4096 43.75 18.0297M31.5 8.51668C34.5388 9.13546 37.3578 10.553 39.6667 12.6233M24.5 8.51668C21.1324 9.20188 18.0422 10.8663 15.617 13.3012" stroke="white" stroke-width="4"/>
<path d="M11.6667 35C13.5997 35 15.1667 33.433 15.1667 31.5C15.1667 29.567 13.5997 28 11.6667 28C9.73366 28 8.16666 29.567 8.16666 31.5C8.16666 33.433 9.73366 35 11.6667 35Z" fill="white" stroke="white" stroke-width="4"/>
<path d="M28 46.6667C29.933 46.6667 31.5 45.0997 31.5 43.1667C31.5 41.2337 29.933 39.6667 28 39.6667C26.067 39.6667 24.5 41.2337 24.5 43.1667C24.5 45.0997 26.067 46.6667 28 46.6667Z" fill="white" stroke="white" stroke-width="4"/>
<path d="M28 11.6667C29.933 11.6667 31.5 10.0997 31.5 8.16667C31.5 6.23368 29.933 4.66667 28 4.66667C26.067 4.66667 24.5 6.23368 24.5 8.16667C24.5 10.0997 26.067 11.6667 28 11.6667Z" fill="white" stroke="white" stroke-width="4"/>
<path d="M14 18.6667C15.933 18.6667 17.5 17.0997 17.5 15.1667C17.5 13.2337 15.933 11.6667 14 11.6667C12.067 11.6667 10.5 13.2337 10.5 15.1667C10.5 17.0997 12.067 18.6667 14 18.6667Z" fill="white" stroke="white" stroke-width="4"/>
<path d="M42 18.6667C43.933 18.6667 45.5 17.0997 45.5 15.1667C45.5 13.2337 43.933 11.6667 42 11.6667C40.067 11.6667 38.5 13.2337 38.5 15.1667C38.5 17.0997 40.067 18.6667 42 18.6667Z" fill="white" stroke="white" stroke-width="4"/>
<path d="M44.3333 35C46.2663 35 47.8333 33.433 47.8333 31.5C47.8333 29.567 46.2663 28 44.3333 28C42.4003 28 40.8333 29.567 40.8333 31.5C40.8333 33.433 42.4003 35 44.3333 35Z" fill="white" stroke="white" stroke-width="4"/>
<path d="M28 30.3333C30.5773 30.3333 32.6667 28.244 32.6667 25.6667C32.6667 23.0893 30.5773 21 28 21C25.4227 21 23.3333 23.0893 23.3333 25.6667C23.3333 28.244 25.4227 30.3333 28 30.3333Z" fill="white"/>
<path d="M7 51.3333H16.3333M39.6667 51.3333H49" stroke="white" stroke-width="4" stroke-linecap="round" stroke-linejoin="round"/>
</mask>
<g mask="url(#mask0_55_272)">
<path d="M0 0H56V56H0V0Z" fill="black"/>
</g>
</svg>
