<svg width="37" height="37" viewBox="0 0 37 37" fill="none" xmlns="http://www.w3.org/2000/svg">
<path d="M36.2829 33.3838L29.3413 26.4625C31.5809 23.6092 32.7962 20.0857 32.7917 16.4583C32.7917 13.2279 31.8337 10.07 30.039 7.38403C28.2443 4.69802 25.6934 2.60454 22.7088 1.36831C19.7243 0.132077 16.4402 -0.191377 13.2719 0.438848C10.1035 1.06907 7.19319 2.62467 4.90893 4.90893C2.62467 7.19319 1.06907 10.1035 0.438848 13.2719C-0.191377 16.4402 0.132077 19.7243 1.36831 22.7088C2.60454 25.6934 4.69802 28.2443 7.38403 30.039C10.07 31.8337 13.2279 32.7917 16.4583 32.7917C20.0857 32.7962 23.6092 31.5809 26.4625 29.3413L33.3838 36.2829C33.5736 36.4743 33.7994 36.6262 34.0482 36.7298C34.297 36.8335 34.5638 36.8868 34.8333 36.8868C35.1029 36.8868 35.3697 36.8335 35.6185 36.7298C35.8673 36.6262 36.0931 36.4743 36.2829 36.2829C36.4743 36.0931 36.6262 35.8673 36.7298 35.6185C36.8335 35.3697 36.8868 35.1029 36.8868 34.8333C36.8868 34.5638 36.8335 34.297 36.7298 34.0482C36.6262 33.7994 36.4743 33.5736 36.2829 33.3838ZM4.20834 16.4583C4.20834 14.0355 4.92679 11.6671 6.27284 9.65261C7.61888 7.6381 9.53207 6.06799 11.7705 5.14082C14.0089 4.21364 16.4719 3.97105 18.8482 4.44372C21.2245 4.91639 23.4072 6.08309 25.1204 7.79628C26.8336 9.50948 28.0003 11.6922 28.473 14.0685C28.9456 16.4448 28.703 18.9078 27.7759 21.1462C26.8487 23.3846 25.2786 25.2978 23.2641 26.6438C21.2496 27.9899 18.8812 28.7083 16.4583 28.7083C13.2094 28.7083 10.0936 27.4177 7.79628 25.1204C5.49896 22.8231 4.20834 19.7072 4.20834 16.4583Z" fill="#8D8D8D"/>
</svg>
