<svg width="18" height="19" viewBox="0 0 18 19" fill="none" xmlns="http://www.w3.org/2000/svg">
<path d="M14.4252 3.74222L3.87815 9.78962C3.79653 9.83643 3.72841 9.90348 3.6804 9.98424C3.63239 10.0651 3.60612 10.1569 3.60415 10.2509C3.60289 10.2896 3.61003 10.3281 3.62508 10.3639C3.64014 10.3996 3.66275 10.4316 3.69137 10.4578C3.71998 10.4839 3.75393 10.5035 3.79087 10.5154C3.82781 10.5272 3.86687 10.531 3.90538 10.5263L8.77909 10.8247L9.62714 15.4915C9.62796 15.5301 9.6371 15.5682 9.65396 15.603C9.67081 15.6379 9.69498 15.6687 9.72481 15.6934C9.75464 15.718 9.78944 15.7361 9.82685 15.7461C9.86427 15.7561 9.9034 15.758 9.94161 15.7516C10.0664 15.734 10.1802 15.6705 10.2607 15.5736C10.3019 15.5263 10.335 15.4725 10.3585 15.4144L14.8807 4.13872C14.9184 4.07699 14.9329 4.00394 14.9218 3.93251C14.9107 3.86108 14.8746 3.79589 14.82 3.74848C14.7654 3.70107 14.6957 3.67451 14.6234 3.67349C14.5509 3.67248 14.4805 3.69708 14.4246 3.74294L14.4252 3.74222Z" stroke="#EEEEEE" stroke-width="1.00018"/>
</svg>
