<svg width="34" height="34" viewBox="0 0 34 34" fill="none" xmlns="http://www.w3.org/2000/svg">
<path d="M17 2.83331C15.599 2.83331 14.2296 3.24874 13.0647 4.02707C11.8999 4.8054 10.992 5.91166 10.4559 7.20597C9.91973 8.50028 9.77946 9.9245 10.0528 11.2985C10.3261 12.6726 11.0007 13.9347 11.9913 14.9253C12.9819 15.9159 14.2441 16.5906 15.6181 16.8639C16.9921 17.1372 18.4164 16.9969 19.7107 16.4608C21.005 15.9247 22.1112 15.0168 22.8896 13.8519C23.6679 12.6871 24.0833 11.3176 24.0833 9.91665C24.0833 8.03803 23.3371 6.23636 22.0087 4.90797C20.6803 3.57959 18.8786 2.83331 17 2.83331ZM17 14.1666C16.1594 14.1666 15.3377 13.9174 14.6388 13.4504C13.9399 12.9834 13.3952 12.3196 13.0735 11.5431C12.7518 10.7665 12.6677 9.91193 12.8317 9.08751C12.9956 8.26309 13.4004 7.50582 13.9948 6.91144C14.5892 6.31707 15.3464 5.9123 16.1709 5.74831C16.9953 5.58432 17.8498 5.66849 18.6264 5.99016C19.403 6.31183 20.0667 6.85656 20.5337 7.55547C21.0007 8.25438 21.25 9.07608 21.25 9.91665C21.25 11.0438 20.8022 12.1248 20.0052 12.9219C19.2082 13.7189 18.1272 14.1666 17 14.1666ZM29.75 29.75V28.3333C29.75 25.7032 28.7052 23.1809 26.8455 21.3212C24.9857 19.4614 22.4634 18.4166 19.8333 18.4166H14.1667C11.5366 18.4166 9.01426 19.4614 7.15452 21.3212C5.29479 23.1809 4.25 25.7032 4.25 28.3333V29.75H7.08333V28.3333C7.08333 26.4547 7.82961 24.653 9.15799 23.3246C10.4864 21.9963 12.288 21.25 14.1667 21.25H19.8333C21.712 21.25 23.5136 21.9963 24.842 23.3246C26.1704 24.653 26.9167 26.4547 26.9167 28.3333V29.75H29.75Z" fill="white"/>
</svg>
