<svg width="13" height="13" viewBox="0 0 13 13" fill="none" xmlns="http://www.w3.org/2000/svg">
<rect width="13" height="13" fill="white"/>
<path d="M12.4054 3.52254C12.2637 2.98878 11.846 2.5684 11.3157 2.42574C10.3544 2.1665 6.50001 2.1665 6.50001 2.1665C6.50001 2.1665 2.6456 2.1665 1.68434 2.42574C1.15403 2.56842 0.736357 2.98878 0.594599 3.52254C0.337036 4.49003 0.337036 6.50859 0.337036 6.50859C0.337036 6.50859 0.337036 8.52716 0.594599 9.49464C0.736357 10.0284 1.15403 10.4313 1.68434 10.5739C2.6456 10.8332 6.50001 10.8332 6.50001 10.8332C6.50001 10.8332 10.3544 10.8332 11.3157 10.5739C11.846 10.4313 12.2637 10.0284 12.4054 9.49464C12.663 8.52716 12.663 6.50859 12.663 6.50859C12.663 6.50859 12.663 4.49003 12.4054 3.52254ZM5.23939 8.3413V4.67589L8.46093 6.50864L5.23939 8.3413Z" fill="#EB1D36"/>
</svg>
