<svg width="27" height="27" viewBox="0 0 27 27" fill="none" xmlns="http://www.w3.org/2000/svg">
<path d="M18.6938 20.5157V22.5552C18.6938 24.8044 16.864 26.6342 14.6148 26.6342H4.36616C2.1169 26.6342 0.287109 24.8044 0.287109 22.5552V4.60737C0.287109 2.35812 2.1169 0.52832 4.36616 0.52832H14.6148C16.864 0.52832 18.6938 2.35812 18.6938 4.60737V6.64689C18.6938 7.21015 18.2373 7.66665 17.6741 7.66665C17.1108 7.66665 16.6543 7.21015 16.6543 6.64689V4.60737C16.6543 3.48284 15.7393 2.56784 14.6148 2.56784H4.36616C3.24163 2.56784 2.32663 3.48284 2.32663 4.60737V22.5552C2.32663 23.6797 3.24163 24.5947 4.36616 24.5947H14.6148C15.7393 24.5947 16.6543 23.6797 16.6543 22.5552V20.5157C16.6543 19.9524 17.1108 19.4959 17.6741 19.4959C18.2373 19.4959 18.6938 19.9524 18.6938 20.5157ZM25.6463 11.8296L23.3628 9.54604C22.9645 9.1477 22.3187 9.1477 21.9206 9.54604C21.5223 9.94419 21.5223 10.5899 21.9206 10.9881L23.5449 12.6125H11.3005C10.7373 12.6125 10.2808 13.069 10.2808 13.6323C10.2808 14.1955 10.7373 14.652 11.3005 14.652H23.5449L21.9206 16.2765C21.5223 16.6746 21.5223 17.3203 21.9206 17.7185C22.1198 17.9177 22.3807 18.0172 22.6416 18.0172C22.9027 18.0172 23.1636 17.9177 23.3628 17.7185L25.6463 15.435C26.6404 14.4409 26.6404 12.8236 25.6463 11.8296Z" fill="white"/>
</svg>
