<svg width="20" height="21" viewBox="0 0 20 21" fill="none" xmlns="http://www.w3.org/2000/svg">
<path d="M18.86 6.86985L11.93 1.32985C10.86 0.469849 9.13002 0.469849 8.07002 1.31985L1.14002 6.86985C0.360021 7.48985 -0.139979 8.79985 0.0300209 9.77985L1.36002 17.7398C1.60002 19.1598 2.96002 20.3098 4.40002 20.3098H15.6C17.03 20.3098 18.4 19.1498 18.64 17.7398L19.97 9.77985C20.13 8.79985 19.63 7.48985 18.86 6.86985ZM10 13.9998C8.62002 13.9998 7.50002 12.8798 7.50002 11.4998C7.50002 10.1198 8.62002 8.99985 10 8.99985C11.38 8.99985 12.5 10.1198 12.5 11.4998C12.5 12.8798 11.38 13.9998 10 13.9998Z" fill="white"/>
</svg>
