<svg width="24" height="25" viewBox="0 0 24 25" fill="none" xmlns="http://www.w3.org/2000/svg">
<path d="M21.5602 17.5168L21.5607 17.5181C22.0243 18.5941 21.9186 19.8233 21.2562 20.7995L21.2561 20.7995L21.2527 20.8046C20.6055 21.7842 19.5124 22.3703 18.3399 22.3703H5.57989C4.36351 22.3703 3.25419 21.7503 2.6151 20.7172C1.97765 19.6868 1.92339 18.4208 2.46737 17.3233C2.46752 17.323 2.46767 17.3227 2.46782 17.3224L4.19622 13.8756C4.19632 13.8754 4.19643 13.8752 4.19653 13.875C4.65468 12.9681 5.2988 12.4959 5.97965 12.4278C6.66837 12.3589 7.39468 12.6776 8.02791 13.4707L8.24652 13.7489C8.24659 13.749 8.24667 13.7491 8.24674 13.7492C8.82353 14.4842 9.60295 14.9379 10.4537 14.8584C11.2908 14.7894 11.9854 14.2158 12.4368 13.4035C12.4368 13.4033 12.4369 13.4032 12.437 13.4031L14.3367 9.99363L14.3371 9.9928C15.0059 8.78711 15.7916 8.31405 16.4739 8.34959L16.4742 8.3496C17.1672 8.38533 17.8936 8.93549 18.4298 10.196L18.4302 10.1968L21.5602 17.5168Z" fill="white" stroke="white"/>
<path d="M6.97009 8.88012C8.83681 8.88012 10.3501 7.36684 10.3501 5.50012C10.3501 3.63339 8.83681 2.12012 6.97009 2.12012C5.10337 2.12012 3.59009 3.63339 3.59009 5.50012C3.59009 7.36684 5.10337 8.88012 6.97009 8.88012Z" fill="white"/>
</svg>
