<svg width="1030" height="191" viewBox="0 0 1030 191" fill="none" xmlns="http://www.w3.org/2000/svg">
<rect x="1" y="25" width="1028" height="165" rx="13" stroke="#EB1D36" stroke-width="2"/>
<path d="M46.6376 99.856C46.3736 99.928 45.9536 100 45.3776 100.072C44.8256 100.144 44.2736 100.18 43.7216 100.18C43.1696 100.18 42.6776 100.132 42.2456 100.036C41.8376 99.964 41.4896 99.82 41.2016 99.604C40.9136 99.388 40.6976 99.088 40.5536 98.704C40.4096 98.32 40.3376 97.816 40.3376 97.192V91.576H33.4256V99.856C33.1616 99.928 32.7416 100 32.1656 100.072C31.6136 100.144 31.0616 100.18 30.5096 100.18C29.9576 100.18 29.4656 100.132 29.0336 100.036C28.6256 99.964 28.2776 99.82 27.9896 99.604C27.7016 99.388 27.4856 99.088 27.3416 98.704C27.1976 98.32 27.1256 97.816 27.1256 97.192V78.184C27.3896 78.136 27.8096 78.076 28.3856 78.004C28.9616 77.908 29.5136 77.86 30.0416 77.86C30.5936 77.86 31.0736 77.908 31.4816 78.004C31.9136 78.076 32.2736 78.22 32.5616 78.436C32.8496 78.652 33.0656 78.952 33.2096 79.336C33.3536 79.72 33.4256 80.224 33.4256 80.848V86.608H40.3376V78.184C40.6016 78.136 41.0216 78.076 41.5976 78.004C42.1736 77.908 42.7256 77.86 43.2536 77.86C43.8056 77.86 44.2856 77.908 44.6936 78.004C45.1256 78.076 45.4856 78.22 45.7736 78.436C46.0616 78.652 46.2776 78.952 46.4216 79.336C46.5656 79.72 46.6376 80.224 46.6376 80.848V99.856ZM60.0971 100.576C58.6811 100.576 57.3611 100.384 56.1371 100C54.9371 99.592 53.8811 98.992 52.9691 98.2C52.0811 97.408 51.3731 96.412 50.8451 95.212C50.3411 94.012 50.0891 92.608 50.0891 91C50.0891 89.416 50.3411 88.06 50.8451 86.932C51.3731 85.78 52.0571 84.844 52.8971 84.124C53.7371 83.38 54.6971 82.84 55.7771 82.504C56.8571 82.144 57.9611 81.964 59.0891 81.964C60.3611 81.964 61.5131 82.156 62.5451 82.54C63.6011 82.924 64.5011 83.452 65.2451 84.124C66.0131 84.796 66.6011 85.6 67.0091 86.536C67.4411 87.472 67.6571 88.492 67.6571 89.596C67.6571 90.412 67.4291 91.036 66.9731 91.468C66.5171 91.9 65.8811 92.176 65.0651 92.296L56.1731 93.628C56.4371 94.42 56.9771 95.02 57.7931 95.428C58.6091 95.812 59.5451 96.004 60.6011 96.004C61.5851 96.004 62.5091 95.884 63.3731 95.644C64.2611 95.38 64.9811 95.08 65.5331 94.744C65.9171 94.984 66.2411 95.32 66.5051 95.752C66.7691 96.184 66.9011 96.64 66.9011 97.12C66.9011 98.2 66.3971 99.004 65.3891 99.532C64.6211 99.94 63.7571 100.216 62.7971 100.36C61.8371 100.504 60.9371 100.576 60.0971 100.576ZM59.0891 86.428C58.5131 86.428 58.0091 86.524 57.5771 86.716C57.1691 86.908 56.8331 87.16 56.5691 87.472C56.3051 87.76 56.1011 88.096 55.9571 88.48C55.8371 88.84 55.7651 89.212 55.7411 89.596L61.8971 88.588C61.8251 88.108 61.5611 87.628 61.1051 87.148C60.6491 86.668 59.9771 86.428 59.0891 86.428ZM76.831 99.964C76.567 100.012 76.171 100.072 75.643 100.144C75.139 100.24 74.623 100.288 74.095 100.288C73.567 100.288 73.087 100.252 72.655 100.18C72.247 100.108 71.899 99.964 71.611 99.748C71.323 99.532 71.095 99.244 70.927 98.884C70.783 98.5 70.711 98.008 70.711 97.408V76.528C70.975 76.48 71.359 76.42 71.863 76.348C72.391 76.252 72.919 76.204 73.447 76.204C73.975 76.204 74.443 76.24 74.851 76.312C75.283 76.384 75.643 76.528 75.931 76.744C76.219 76.96 76.435 77.26 76.579 77.644C76.747 78.004 76.831 78.484 76.831 79.084V99.964ZM86.9208 99.964C86.6568 100.012 86.2608 100.072 85.7328 100.144C85.2288 100.24 84.7128 100.288 84.1848 100.288C83.6568 100.288 83.1768 100.252 82.7448 100.18C82.3368 100.108 81.9888 99.964 81.7008 99.748C81.4128 99.532 81.1848 99.244 81.0168 98.884C80.8728 98.5 80.8008 98.008 80.8008 97.408V76.528C81.0648 76.48 81.4488 76.42 81.9528 76.348C82.4808 76.252 83.0088 76.204 83.5368 76.204C84.0648 76.204 84.5328 76.24 84.9408 76.312C85.3728 76.384 85.7328 76.528 86.0208 76.744C86.3088 76.96 86.5248 77.26 86.6688 77.644C86.8368 78.004 86.9208 78.484 86.9208 79.084V99.964ZM108.891 91.252C108.891 92.74 108.663 94.072 108.207 95.248C107.751 96.4 107.103 97.372 106.263 98.164C105.447 98.956 104.463 99.556 103.311 99.964C102.159 100.372 100.875 100.576 99.4586 100.576C98.0426 100.576 96.7586 100.36 95.6066 99.928C94.4546 99.496 93.4586 98.884 92.6186 98.092C91.8026 97.276 91.1666 96.292 90.7106 95.14C90.2546 93.988 90.0266 92.692 90.0266 91.252C90.0266 89.836 90.2546 88.552 90.7106 87.4C91.1666 86.248 91.8026 85.276 92.6186 84.484C93.4586 83.668 94.4546 83.044 95.6066 82.612C96.7586 82.18 98.0426 81.964 99.4586 81.964C100.875 81.964 102.159 82.192 103.311 82.648C104.463 83.08 105.447 83.704 106.263 84.52C107.103 85.312 107.751 86.284 108.207 87.436C108.663 88.588 108.891 89.86 108.891 91.252ZM96.2906 91.252C96.2906 92.716 96.5666 93.844 97.1186 94.636C97.6946 95.404 98.4866 95.788 99.4946 95.788C100.503 95.788 101.271 95.392 101.799 94.6C102.351 93.808 102.627 92.692 102.627 91.252C102.627 89.812 102.351 88.708 101.799 87.94C101.247 87.148 100.467 86.752 99.4586 86.752C98.4506 86.752 97.6706 87.148 97.1186 87.94C96.5666 88.708 96.2906 89.812 96.2906 91.252ZM124.195 78.832C124.603 78.592 125.215 78.364 126.031 78.148C126.871 77.932 127.711 77.824 128.551 77.824C129.751 77.824 130.807 78.004 131.719 78.364C132.655 78.7 133.255 79.24 133.519 79.984C133.951 81.232 134.419 82.684 134.923 84.34C135.427 85.996 135.931 87.712 136.435 89.488C136.939 91.24 137.431 92.98 137.911 94.708C138.391 96.412 138.811 97.924 139.171 99.244C138.883 99.58 138.451 99.844 137.875 100.036C137.299 100.252 136.615 100.36 135.823 100.36C135.247 100.36 134.755 100.312 134.347 100.216C133.963 100.12 133.639 99.976 133.375 99.784C133.135 99.592 132.931 99.34 132.763 99.028C132.619 98.716 132.487 98.356 132.367 97.948L131.719 95.464H125.203C125.011 96.184 124.819 96.928 124.627 97.696C124.435 98.464 124.243 99.208 124.051 99.928C123.715 100.048 123.355 100.144 122.971 100.216C122.611 100.312 122.167 100.36 121.639 100.36C120.415 100.36 119.503 100.156 118.903 99.748C118.327 99.316 118.039 98.728 118.039 97.984C118.039 97.648 118.087 97.312 118.183 96.976C118.279 96.64 118.387 96.244 118.507 95.788C118.675 95.14 118.903 94.336 119.191 93.376C119.503 92.416 119.839 91.384 120.199 90.28C120.559 89.152 120.943 88 121.351 86.824C121.759 85.648 122.143 84.544 122.503 83.512C122.863 82.456 123.187 81.52 123.475 80.704C123.787 79.888 124.027 79.264 124.195 78.832ZM128.515 83.476C128.179 84.484 127.795 85.612 127.363 86.86C126.955 88.084 126.583 89.332 126.247 90.604H130.711C130.375 89.308 130.027 88.048 129.667 86.824C129.331 85.576 129.019 84.46 128.731 83.476H128.515ZM140.616 91.252C140.616 89.668 140.856 88.3 141.336 87.148C141.816 85.972 142.476 85 143.316 84.232C144.18 83.464 145.176 82.9 146.304 82.54C147.456 82.156 148.692 81.964 150.012 81.964C150.492 81.964 150.96 82.012 151.416 82.108C151.872 82.18 152.244 82.276 152.532 82.396V76.564C152.772 76.492 153.156 76.42 153.684 76.348C154.212 76.252 154.752 76.204 155.304 76.204C155.832 76.204 156.3 76.24 156.708 76.312C157.14 76.384 157.5 76.528 157.788 76.744C158.076 76.96 158.292 77.26 158.436 77.644C158.58 78.004 158.652 78.484 158.652 79.084V96.148C158.652 97.276 158.124 98.176 157.068 98.848C156.372 99.304 155.472 99.7 154.368 100.036C153.264 100.396 151.992 100.576 150.552 100.576C148.992 100.576 147.588 100.36 146.34 99.928C145.116 99.496 144.072 98.872 143.208 98.056C142.368 97.24 141.72 96.268 141.264 95.14C140.832 93.988 140.616 92.692 140.616 91.252ZM150.84 86.752C149.544 86.752 148.548 87.124 147.852 87.868C147.156 88.612 146.808 89.74 146.808 91.252C146.808 92.74 147.132 93.868 147.78 94.636C148.428 95.38 149.364 95.752 150.588 95.752C151.02 95.752 151.404 95.692 151.74 95.572C152.1 95.428 152.376 95.272 152.568 95.104V87.184C152.088 86.896 151.512 86.752 150.84 86.752ZM170.854 81.964C171.838 81.964 172.798 82.108 173.734 82.396C174.694 82.66 175.522 83.068 176.218 83.62C176.938 83.14 177.742 82.744 178.63 82.432C179.542 82.12 180.634 81.964 181.906 81.964C182.818 81.964 183.706 82.084 184.57 82.324C185.458 82.564 186.238 82.948 186.91 83.476C187.606 83.98 188.158 84.664 188.566 85.528C188.974 86.368 189.178 87.4 189.178 88.624V99.964C188.938 100.036 188.554 100.108 188.026 100.18C187.522 100.252 186.994 100.288 186.442 100.288C185.914 100.288 185.434 100.252 185.002 100.18C184.594 100.108 184.246 99.964 183.958 99.748C183.67 99.532 183.442 99.244 183.274 98.884C183.13 98.5 183.058 98.008 183.058 97.408V88.804C183.058 88.084 182.854 87.568 182.446 87.256C182.038 86.92 181.486 86.752 180.79 86.752C180.454 86.752 180.094 86.836 179.71 87.004C179.326 87.148 179.038 87.304 178.846 87.472C178.87 87.568 178.882 87.664 178.882 87.76C178.882 87.832 178.882 87.904 178.882 87.976V99.964C178.618 100.036 178.222 100.108 177.694 100.18C177.19 100.252 176.674 100.288 176.146 100.288C175.618 100.288 175.138 100.252 174.706 100.18C174.298 100.108 173.95 99.964 173.662 99.748C173.374 99.532 173.146 99.244 172.978 98.884C172.834 98.5 172.762 98.008 172.762 97.408V88.804C172.762 88.084 172.534 87.568 172.078 87.256C171.646 86.92 171.118 86.752 170.494 86.752C170.062 86.752 169.69 86.824 169.378 86.968C169.066 87.088 168.802 87.208 168.586 87.328V99.964C168.346 100.036 167.962 100.108 167.434 100.18C166.93 100.252 166.402 100.288 165.85 100.288C165.322 100.288 164.842 100.252 164.41 100.18C164.002 100.108 163.654 99.964 163.366 99.748C163.078 99.532 162.85 99.244 162.682 98.884C162.538 98.5 162.466 98.008 162.466 97.408V86.536C162.466 85.888 162.598 85.372 162.862 84.988C163.15 84.604 163.534 84.244 164.014 83.908C164.83 83.332 165.838 82.864 167.038 82.504C168.262 82.144 169.534 81.964 170.854 81.964ZM192.768 77.644C192.768 76.732 193.068 75.964 193.668 75.34C194.292 74.716 195.108 74.404 196.116 74.404C197.124 74.404 197.928 74.716 198.528 75.34C199.152 75.964 199.464 76.732 199.464 77.644C199.464 78.556 199.152 79.324 198.528 79.948C197.928 80.572 197.124 80.884 196.116 80.884C195.108 80.884 194.292 80.572 193.668 79.948C193.068 79.324 192.768 78.556 192.768 77.644ZM199.176 99.964C198.912 100.012 198.516 100.072 197.988 100.144C197.484 100.24 196.968 100.288 196.44 100.288C195.912 100.288 195.432 100.252 195 100.18C194.592 100.108 194.244 99.964 193.956 99.748C193.668 99.532 193.44 99.244 193.272 98.884C193.128 98.5 193.056 98.008 193.056 97.408V82.756C193.32 82.708 193.704 82.648 194.208 82.576C194.736 82.48 195.264 82.432 195.792 82.432C196.32 82.432 196.788 82.468 197.196 82.54C197.628 82.612 197.988 82.756 198.276 82.972C198.564 83.188 198.78 83.488 198.924 83.872C199.092 84.232 199.176 84.712 199.176 85.312V99.964ZM214.16 88.912C214.16 88.168 213.944 87.628 213.512 87.292C213.104 86.932 212.54 86.752 211.82 86.752C211.34 86.752 210.86 86.812 210.38 86.932C209.924 87.052 209.528 87.232 209.192 87.472V99.964C208.952 100.036 208.568 100.108 208.04 100.18C207.536 100.252 207.008 100.288 206.456 100.288C205.928 100.288 205.448 100.252 205.016 100.18C204.608 100.108 204.26 99.964 203.972 99.748C203.684 99.532 203.456 99.244 203.288 98.884C203.144 98.5 203.072 98.008 203.072 97.408V86.608C203.072 85.96 203.204 85.432 203.468 85.024C203.756 84.616 204.14 84.244 204.62 83.908C205.436 83.332 206.456 82.864 207.68 82.504C208.928 82.144 210.308 81.964 211.82 81.964C214.532 81.964 216.62 82.564 218.084 83.764C219.548 84.94 220.28 86.584 220.28 88.696V99.964C220.04 100.036 219.656 100.108 219.128 100.18C218.624 100.252 218.096 100.288 217.544 100.288C217.016 100.288 216.536 100.252 216.104 100.18C215.696 100.108 215.348 99.964 215.06 99.748C214.772 99.532 214.544 99.244 214.376 98.884C214.232 98.5 214.16 98.008 214.16 97.408V88.912Z" fill="#EB1D36"/>
<path d="M26.3203 116.625H30.0859C30.9401 116.625 31.6615 116.755 32.25 117.016C32.8438 117.276 33.2943 117.661 33.6016 118.172C33.9141 118.677 34.0703 119.299 34.0703 120.039C34.0703 120.56 33.9635 121.036 33.75 121.469C33.5417 121.896 33.2396 122.26 32.8438 122.562C32.4531 122.859 31.9844 123.081 31.4375 123.227L31.0156 123.391H27.4766L27.4609 122.164H30.1328C30.6745 122.164 31.125 122.07 31.4844 121.883C31.8438 121.69 32.1146 121.432 32.2969 121.109C32.4792 120.786 32.5703 120.43 32.5703 120.039C32.5703 119.602 32.4844 119.219 32.3125 118.891C32.1406 118.562 31.8698 118.31 31.5 118.133C31.1354 117.951 30.6641 117.859 30.0859 117.859H27.8281V128H26.3203V116.625ZM32.9688 128L30.2031 122.844L31.7734 122.836L34.5781 127.906V128H32.9688ZM35.5781 123.867V123.688C35.5781 123.078 35.6667 122.513 35.8438 121.992C36.0208 121.466 36.276 121.01 36.6094 120.625C36.9427 120.234 37.3464 119.932 37.8203 119.719C38.2943 119.5 38.8255 119.391 39.4141 119.391C40.0078 119.391 40.5417 119.5 41.0156 119.719C41.4948 119.932 41.901 120.234 42.2344 120.625C42.5729 121.01 42.8307 121.466 43.0078 121.992C43.1849 122.513 43.2734 123.078 43.2734 123.688V123.867C43.2734 124.477 43.1849 125.042 43.0078 125.562C42.8307 126.083 42.5729 126.539 42.2344 126.93C41.901 127.315 41.4974 127.617 41.0234 127.836C40.5547 128.049 40.0234 128.156 39.4297 128.156C38.8359 128.156 38.3021 128.049 37.8281 127.836C37.3542 127.617 36.9479 127.315 36.6094 126.93C36.276 126.539 36.0208 126.083 35.8438 125.562C35.6667 125.042 35.5781 124.477 35.5781 123.867ZM37.0234 123.688V123.867C37.0234 124.289 37.0729 124.688 37.1719 125.062C37.2708 125.432 37.4193 125.76 37.6172 126.047C37.8203 126.333 38.0729 126.56 38.375 126.727C38.6771 126.888 39.0286 126.969 39.4297 126.969C39.8255 126.969 40.1719 126.888 40.4688 126.727C40.7708 126.56 41.0208 126.333 41.2188 126.047C41.4167 125.76 41.5651 125.432 41.6641 125.062C41.7682 124.688 41.8203 124.289 41.8203 123.867V123.688C41.8203 123.271 41.7682 122.878 41.6641 122.508C41.5651 122.133 41.4141 121.802 41.2109 121.516C41.013 121.224 40.763 120.995 40.4609 120.828C40.1641 120.661 39.8151 120.578 39.4141 120.578C39.0182 120.578 38.6693 120.661 38.3672 120.828C38.0703 120.995 37.8203 121.224 37.6172 121.516C37.4193 121.802 37.2708 122.133 37.1719 122.508C37.0729 122.878 37.0234 123.271 37.0234 123.688ZM46.6562 116V128H45.2031V116H46.6562ZM52.4844 128.156C51.8958 128.156 51.362 128.057 50.8828 127.859C50.4089 127.656 50 127.372 49.6562 127.008C49.3177 126.643 49.0573 126.211 48.875 125.711C48.6927 125.211 48.6016 124.664 48.6016 124.07V123.742C48.6016 123.055 48.7031 122.443 48.9062 121.906C49.1094 121.365 49.3854 120.906 49.7344 120.531C50.0833 120.156 50.4792 119.872 50.9219 119.68C51.3646 119.487 51.8229 119.391 52.2969 119.391C52.901 119.391 53.4219 119.495 53.8594 119.703C54.3021 119.911 54.6641 120.203 54.9453 120.578C55.2266 120.948 55.4349 121.385 55.5703 121.891C55.7057 122.391 55.7734 122.938 55.7734 123.531V124.18H49.4609V123H54.3281V122.891C54.3073 122.516 54.2292 122.151 54.0938 121.797C53.9635 121.443 53.7552 121.151 53.4688 120.922C53.1823 120.693 52.7917 120.578 52.2969 120.578C51.9688 120.578 51.6667 120.648 51.3906 120.789C51.1146 120.924 50.8776 121.128 50.6797 121.398C50.4818 121.669 50.3281 122 50.2188 122.391C50.1094 122.781 50.0547 123.232 50.0547 123.742V124.07C50.0547 124.471 50.1094 124.849 50.2188 125.203C50.3333 125.552 50.4974 125.859 50.7109 126.125C50.9297 126.391 51.1927 126.599 51.5 126.75C51.8125 126.901 52.1667 126.977 52.5625 126.977C53.0729 126.977 53.5052 126.872 53.8594 126.664C54.2135 126.456 54.5234 126.177 54.7891 125.828L55.6641 126.523C55.4818 126.799 55.25 127.062 54.9688 127.312C54.6875 127.562 54.3411 127.766 53.9297 127.922C53.5234 128.078 53.0417 128.156 52.4844 128.156ZM66.6016 126.047V119.547H68.0547V128H66.6719L66.6016 126.047ZM66.875 124.266L67.4766 124.25C67.4766 124.812 67.4167 125.333 67.2969 125.812C67.1823 126.286 66.9948 126.698 66.7344 127.047C66.474 127.396 66.1328 127.669 65.7109 127.867C65.2891 128.06 64.776 128.156 64.1719 128.156C63.7604 128.156 63.3828 128.096 63.0391 127.977C62.7005 127.857 62.4089 127.672 62.1641 127.422C61.9193 127.172 61.7292 126.846 61.5938 126.445C61.4635 126.044 61.3984 125.562 61.3984 125V119.547H62.8438V125.016C62.8438 125.396 62.8854 125.711 62.9688 125.961C63.0573 126.206 63.1745 126.401 63.3203 126.547C63.4714 126.688 63.638 126.786 63.8203 126.844C64.0078 126.901 64.2005 126.93 64.3984 126.93C65.013 126.93 65.5 126.812 65.8594 126.578C66.2188 126.339 66.4766 126.018 66.6328 125.617C66.7943 125.211 66.875 124.76 66.875 124.266ZM71.7031 121.352V128H70.2578V119.547H71.625L71.7031 121.352ZM71.3594 123.453L70.7578 123.43C70.763 122.852 70.849 122.318 71.0156 121.828C71.1823 121.333 71.4167 120.904 71.7188 120.539C72.0208 120.174 72.3802 119.893 72.7969 119.695C73.2188 119.492 73.6849 119.391 74.1953 119.391C74.612 119.391 74.987 119.448 75.3203 119.562C75.6536 119.672 75.9375 119.849 76.1719 120.094C76.4115 120.339 76.5938 120.656 76.7188 121.047C76.8438 121.432 76.9062 121.904 76.9062 122.461V128H75.4531V122.445C75.4531 122.003 75.388 121.648 75.2578 121.383C75.1276 121.112 74.9375 120.917 74.6875 120.797C74.4375 120.672 74.1302 120.609 73.7656 120.609C73.4062 120.609 73.0781 120.685 72.7812 120.836C72.4896 120.987 72.237 121.195 72.0234 121.461C71.8151 121.727 71.651 122.031 71.5312 122.375C71.4167 122.714 71.3594 123.073 71.3594 123.453ZM82.6406 119.547V120.656H78.0703V119.547H82.6406ZM79.6172 117.492H81.0625V125.906C81.0625 126.193 81.1068 126.409 81.1953 126.555C81.2839 126.701 81.3984 126.797 81.5391 126.844C81.6797 126.891 81.8307 126.914 81.9922 126.914C82.112 126.914 82.237 126.904 82.3672 126.883C82.5026 126.857 82.6042 126.836 82.6719 126.82L82.6797 128C82.5651 128.036 82.4141 128.07 82.2266 128.102C82.0443 128.138 81.8229 128.156 81.5625 128.156C81.2083 128.156 80.8828 128.086 80.5859 127.945C80.2891 127.805 80.0521 127.57 79.875 127.242C79.7031 126.909 79.6172 126.461 79.6172 125.898V117.492ZM89.5078 126.047V119.547H90.9609V128H89.5781L89.5078 126.047ZM89.7812 124.266L90.3828 124.25C90.3828 124.812 90.3229 125.333 90.2031 125.812C90.0885 126.286 89.901 126.698 89.6406 127.047C89.3802 127.396 89.0391 127.669 88.6172 127.867C88.1953 128.06 87.6823 128.156 87.0781 128.156C86.6667 128.156 86.2891 128.096 85.9453 127.977C85.6068 127.857 85.3151 127.672 85.0703 127.422C84.8255 127.172 84.6354 126.846 84.5 126.445C84.3698 126.044 84.3047 125.562 84.3047 125V119.547H85.75V125.016C85.75 125.396 85.7917 125.711 85.875 125.961C85.9635 126.206 86.0807 126.401 86.2266 126.547C86.3776 126.688 86.5443 126.786 86.7266 126.844C86.9141 126.901 87.1068 126.93 87.3047 126.93C87.9193 126.93 88.4062 126.812 88.7656 126.578C89.125 126.339 89.3828 126.018 89.5391 125.617C89.7005 125.211 89.7812 124.76 89.7812 124.266ZM94.6172 116V128H93.1641V116H94.6172ZM99.7812 119.547L96.0938 123.492L94.0312 125.633L93.9141 124.094L95.3906 122.328L98.0156 119.547H99.7812ZM98.4609 128L95.4453 123.969L96.1953 122.68L100.164 128H98.4609ZM106.68 121.227V128H105.227V119.547H106.602L106.68 121.227ZM106.383 123.453L105.711 123.43C105.716 122.852 105.792 122.318 105.938 121.828C106.083 121.333 106.299 120.904 106.586 120.539C106.872 120.174 107.229 119.893 107.656 119.695C108.083 119.492 108.578 119.391 109.141 119.391C109.536 119.391 109.901 119.448 110.234 119.562C110.568 119.672 110.857 119.846 111.102 120.086C111.346 120.326 111.536 120.633 111.672 121.008C111.807 121.383 111.875 121.836 111.875 122.367V128H110.43V122.438C110.43 121.995 110.354 121.641 110.203 121.375C110.057 121.109 109.849 120.917 109.578 120.797C109.307 120.672 108.99 120.609 108.625 120.609C108.198 120.609 107.841 120.685 107.555 120.836C107.268 120.987 107.039 121.195 106.867 121.461C106.695 121.727 106.57 122.031 106.492 122.375C106.419 122.714 106.383 123.073 106.383 123.453ZM111.859 122.656L110.891 122.953C110.896 122.49 110.971 122.044 111.117 121.617C111.268 121.19 111.484 120.81 111.766 120.477C112.052 120.143 112.404 119.88 112.82 119.688C113.237 119.49 113.714 119.391 114.25 119.391C114.703 119.391 115.104 119.451 115.453 119.57C115.807 119.69 116.104 119.875 116.344 120.125C116.589 120.37 116.773 120.685 116.898 121.07C117.023 121.456 117.086 121.914 117.086 122.445V128H115.633V122.43C115.633 121.956 115.557 121.589 115.406 121.328C115.26 121.062 115.052 120.878 114.781 120.773C114.516 120.664 114.198 120.609 113.828 120.609C113.51 120.609 113.229 120.664 112.984 120.773C112.74 120.883 112.534 121.034 112.367 121.227C112.201 121.414 112.073 121.63 111.984 121.875C111.901 122.12 111.859 122.38 111.859 122.656ZM122.781 128.156C122.193 128.156 121.659 128.057 121.18 127.859C120.706 127.656 120.297 127.372 119.953 127.008C119.615 126.643 119.354 126.211 119.172 125.711C118.99 125.211 118.898 124.664 118.898 124.07V123.742C118.898 123.055 119 122.443 119.203 121.906C119.406 121.365 119.682 120.906 120.031 120.531C120.38 120.156 120.776 119.872 121.219 119.68C121.661 119.487 122.12 119.391 122.594 119.391C123.198 119.391 123.719 119.495 124.156 119.703C124.599 119.911 124.961 120.203 125.242 120.578C125.523 120.948 125.732 121.385 125.867 121.891C126.003 122.391 126.07 122.938 126.07 123.531V124.18H119.758V123H124.625V122.891C124.604 122.516 124.526 122.151 124.391 121.797C124.26 121.443 124.052 121.151 123.766 120.922C123.479 120.693 123.089 120.578 122.594 120.578C122.266 120.578 121.964 120.648 121.688 120.789C121.411 120.924 121.174 121.128 120.977 121.398C120.779 121.669 120.625 122 120.516 122.391C120.406 122.781 120.352 123.232 120.352 123.742V124.07C120.352 124.471 120.406 124.849 120.516 125.203C120.63 125.552 120.794 125.859 121.008 126.125C121.227 126.391 121.49 126.599 121.797 126.75C122.109 126.901 122.464 126.977 122.859 126.977C123.37 126.977 123.802 126.872 124.156 126.664C124.51 126.456 124.82 126.177 125.086 125.828L125.961 126.523C125.779 126.799 125.547 127.062 125.266 127.312C124.984 127.562 124.638 127.766 124.227 127.922C123.82 128.078 123.339 128.156 122.781 128.156ZM129.203 121.352V128H127.758V119.547H129.125L129.203 121.352ZM128.859 123.453L128.258 123.43C128.263 122.852 128.349 122.318 128.516 121.828C128.682 121.333 128.917 120.904 129.219 120.539C129.521 120.174 129.88 119.893 130.297 119.695C130.719 119.492 131.185 119.391 131.695 119.391C132.112 119.391 132.487 119.448 132.82 119.562C133.154 119.672 133.438 119.849 133.672 120.094C133.911 120.339 134.094 120.656 134.219 121.047C134.344 121.432 134.406 121.904 134.406 122.461V128H132.953V122.445C132.953 122.003 132.888 121.648 132.758 121.383C132.628 121.112 132.438 120.917 132.188 120.797C131.938 120.672 131.63 120.609 131.266 120.609C130.906 120.609 130.578 120.685 130.281 120.836C129.99 120.987 129.737 121.195 129.523 121.461C129.315 121.727 129.151 122.031 129.031 122.375C128.917 122.714 128.859 123.073 128.859 123.453ZM142.078 119.547H143.391V127.82C143.391 128.565 143.24 129.201 142.938 129.727C142.635 130.253 142.214 130.651 141.672 130.922C141.135 131.198 140.516 131.336 139.812 131.336C139.521 131.336 139.177 131.289 138.781 131.195C138.391 131.107 138.005 130.953 137.625 130.734C137.25 130.521 136.935 130.232 136.68 129.867L137.438 129.008C137.792 129.435 138.161 129.732 138.547 129.898C138.938 130.065 139.323 130.148 139.703 130.148C140.161 130.148 140.557 130.062 140.891 129.891C141.224 129.719 141.482 129.464 141.664 129.125C141.852 128.792 141.945 128.38 141.945 127.891V121.406L142.078 119.547ZM136.258 123.867V123.703C136.258 123.057 136.333 122.471 136.484 121.945C136.641 121.414 136.862 120.958 137.148 120.578C137.44 120.198 137.792 119.906 138.203 119.703C138.615 119.495 139.078 119.391 139.594 119.391C140.125 119.391 140.589 119.484 140.984 119.672C141.385 119.854 141.724 120.122 142 120.477C142.281 120.826 142.503 121.247 142.664 121.742C142.826 122.237 142.938 122.797 143 123.422V124.141C142.943 124.76 142.831 125.318 142.664 125.812C142.503 126.307 142.281 126.729 142 127.078C141.724 127.427 141.385 127.695 140.984 127.883C140.583 128.065 140.115 128.156 139.578 128.156C139.073 128.156 138.615 128.049 138.203 127.836C137.797 127.622 137.448 127.323 137.156 126.938C136.865 126.552 136.641 126.099 136.484 125.578C136.333 125.052 136.258 124.482 136.258 123.867ZM137.703 123.703V123.867C137.703 124.289 137.745 124.685 137.828 125.055C137.917 125.424 138.049 125.75 138.227 126.031C138.409 126.312 138.641 126.534 138.922 126.695C139.203 126.852 139.539 126.93 139.93 126.93C140.409 126.93 140.805 126.828 141.117 126.625C141.43 126.422 141.677 126.154 141.859 125.82C142.047 125.487 142.193 125.125 142.297 124.734V122.852C142.24 122.565 142.151 122.289 142.031 122.023C141.917 121.753 141.766 121.513 141.578 121.305C141.396 121.091 141.169 120.922 140.898 120.797C140.628 120.672 140.31 120.609 139.945 120.609C139.549 120.609 139.208 120.693 138.922 120.859C138.641 121.021 138.409 121.245 138.227 121.531C138.049 121.812 137.917 122.141 137.828 122.516C137.745 122.885 137.703 123.281 137.703 123.703ZM150.57 126.555V122.203C150.57 121.87 150.503 121.581 150.367 121.336C150.237 121.086 150.039 120.893 149.773 120.758C149.508 120.622 149.18 120.555 148.789 120.555C148.424 120.555 148.104 120.617 147.828 120.742C147.557 120.867 147.344 121.031 147.188 121.234C147.036 121.438 146.961 121.656 146.961 121.891H145.516C145.516 121.589 145.594 121.289 145.75 120.992C145.906 120.695 146.13 120.427 146.422 120.188C146.719 119.943 147.073 119.75 147.484 119.609C147.901 119.464 148.365 119.391 148.875 119.391C149.49 119.391 150.031 119.495 150.5 119.703C150.974 119.911 151.344 120.227 151.609 120.648C151.88 121.065 152.016 121.589 152.016 122.219V126.156C152.016 126.438 152.039 126.737 152.086 127.055C152.138 127.372 152.214 127.646 152.312 127.875V128H150.805C150.732 127.833 150.674 127.612 150.633 127.336C150.591 127.055 150.57 126.794 150.57 126.555ZM150.82 122.875L150.836 123.891H149.375C148.964 123.891 148.596 123.924 148.273 123.992C147.951 124.055 147.68 124.151 147.461 124.281C147.242 124.411 147.076 124.576 146.961 124.773C146.846 124.966 146.789 125.193 146.789 125.453C146.789 125.719 146.849 125.961 146.969 126.18C147.089 126.398 147.268 126.573 147.508 126.703C147.753 126.828 148.052 126.891 148.406 126.891C148.849 126.891 149.24 126.797 149.578 126.609C149.917 126.422 150.185 126.193 150.383 125.922C150.586 125.651 150.695 125.388 150.711 125.133L151.328 125.828C151.292 126.047 151.193 126.289 151.031 126.555C150.87 126.82 150.654 127.076 150.383 127.32C150.117 127.56 149.799 127.76 149.43 127.922C149.065 128.078 148.654 128.156 148.195 128.156C147.622 128.156 147.12 128.044 146.688 127.82C146.26 127.596 145.927 127.297 145.688 126.922C145.453 126.542 145.336 126.117 145.336 125.648C145.336 125.195 145.424 124.797 145.602 124.453C145.779 124.104 146.034 123.815 146.367 123.586C146.701 123.352 147.102 123.174 147.57 123.055C148.039 122.935 148.562 122.875 149.141 122.875H150.82ZM157.828 119.547V120.656H153.258V119.547H157.828ZM154.805 117.492H156.25V125.906C156.25 126.193 156.294 126.409 156.383 126.555C156.471 126.701 156.586 126.797 156.727 126.844C156.867 126.891 157.018 126.914 157.18 126.914C157.299 126.914 157.424 126.904 157.555 126.883C157.69 126.857 157.792 126.836 157.859 126.82L157.867 128C157.753 128.036 157.602 128.07 157.414 128.102C157.232 128.138 157.01 128.156 156.75 128.156C156.396 128.156 156.07 128.086 155.773 127.945C155.477 127.805 155.24 127.57 155.062 127.242C154.891 126.909 154.805 126.461 154.805 125.898V117.492ZM164.695 126.047V119.547H166.148V128H164.766L164.695 126.047ZM164.969 124.266L165.57 124.25C165.57 124.812 165.51 125.333 165.391 125.812C165.276 126.286 165.089 126.698 164.828 127.047C164.568 127.396 164.227 127.669 163.805 127.867C163.383 128.06 162.87 128.156 162.266 128.156C161.854 128.156 161.477 128.096 161.133 127.977C160.794 127.857 160.503 127.672 160.258 127.422C160.013 127.172 159.823 126.846 159.688 126.445C159.557 126.044 159.492 125.562 159.492 125V119.547H160.938V125.016C160.938 125.396 160.979 125.711 161.062 125.961C161.151 126.206 161.268 126.401 161.414 126.547C161.565 126.688 161.732 126.786 161.914 126.844C162.102 126.901 162.294 126.93 162.492 126.93C163.107 126.93 163.594 126.812 163.953 126.578C164.312 126.339 164.57 126.018 164.727 125.617C164.888 125.211 164.969 124.76 164.969 124.266ZM169.797 120.875V128H168.352V119.547H169.758L169.797 120.875ZM172.438 119.5L172.43 120.844C172.31 120.818 172.195 120.802 172.086 120.797C171.982 120.786 171.862 120.781 171.727 120.781C171.393 120.781 171.099 120.833 170.844 120.938C170.589 121.042 170.372 121.188 170.195 121.375C170.018 121.562 169.878 121.786 169.773 122.047C169.674 122.302 169.609 122.583 169.578 122.891L169.172 123.125C169.172 122.615 169.221 122.135 169.32 121.688C169.424 121.24 169.583 120.844 169.797 120.5C170.01 120.151 170.281 119.88 170.609 119.688C170.943 119.49 171.339 119.391 171.797 119.391C171.901 119.391 172.021 119.404 172.156 119.43C172.292 119.451 172.385 119.474 172.438 119.5ZM182.664 125.758C182.664 125.549 182.617 125.357 182.523 125.18C182.435 124.997 182.25 124.833 181.969 124.688C181.693 124.536 181.276 124.406 180.719 124.297C180.25 124.198 179.826 124.081 179.445 123.945C179.07 123.81 178.75 123.646 178.484 123.453C178.224 123.26 178.023 123.034 177.883 122.773C177.742 122.513 177.672 122.208 177.672 121.859C177.672 121.526 177.745 121.211 177.891 120.914C178.042 120.617 178.253 120.354 178.523 120.125C178.799 119.896 179.13 119.716 179.516 119.586C179.901 119.456 180.331 119.391 180.805 119.391C181.482 119.391 182.06 119.51 182.539 119.75C183.018 119.99 183.385 120.31 183.641 120.711C183.896 121.107 184.023 121.547 184.023 122.031H182.578C182.578 121.797 182.508 121.57 182.367 121.352C182.232 121.128 182.031 120.943 181.766 120.797C181.505 120.651 181.185 120.578 180.805 120.578C180.404 120.578 180.078 120.641 179.828 120.766C179.583 120.885 179.404 121.039 179.289 121.227C179.18 121.414 179.125 121.612 179.125 121.82C179.125 121.977 179.151 122.117 179.203 122.242C179.26 122.362 179.359 122.474 179.5 122.578C179.641 122.677 179.839 122.771 180.094 122.859C180.349 122.948 180.674 123.036 181.07 123.125C181.763 123.281 182.333 123.469 182.781 123.688C183.229 123.906 183.562 124.174 183.781 124.492C184 124.81 184.109 125.195 184.109 125.648C184.109 126.018 184.031 126.357 183.875 126.664C183.724 126.971 183.503 127.237 183.211 127.461C182.924 127.68 182.581 127.852 182.18 127.977C181.784 128.096 181.339 128.156 180.844 128.156C180.099 128.156 179.469 128.023 178.953 127.758C178.438 127.492 178.047 127.148 177.781 126.727C177.516 126.305 177.383 125.859 177.383 125.391H178.836C178.857 125.786 178.971 126.102 179.18 126.336C179.388 126.565 179.643 126.729 179.945 126.828C180.247 126.922 180.547 126.969 180.844 126.969C181.24 126.969 181.57 126.917 181.836 126.812C182.107 126.708 182.312 126.565 182.453 126.383C182.594 126.201 182.664 125.992 182.664 125.758ZM189.516 128.156C188.927 128.156 188.393 128.057 187.914 127.859C187.44 127.656 187.031 127.372 186.688 127.008C186.349 126.643 186.089 126.211 185.906 125.711C185.724 125.211 185.633 124.664 185.633 124.07V123.742C185.633 123.055 185.734 122.443 185.938 121.906C186.141 121.365 186.417 120.906 186.766 120.531C187.115 120.156 187.51 119.872 187.953 119.68C188.396 119.487 188.854 119.391 189.328 119.391C189.932 119.391 190.453 119.495 190.891 119.703C191.333 119.911 191.695 120.203 191.977 120.578C192.258 120.948 192.466 121.385 192.602 121.891C192.737 122.391 192.805 122.938 192.805 123.531V124.18H186.492V123H191.359V122.891C191.339 122.516 191.26 122.151 191.125 121.797C190.995 121.443 190.786 121.151 190.5 120.922C190.214 120.693 189.823 120.578 189.328 120.578C189 120.578 188.698 120.648 188.422 120.789C188.146 120.924 187.909 121.128 187.711 121.398C187.513 121.669 187.359 122 187.25 122.391C187.141 122.781 187.086 123.232 187.086 123.742V124.07C187.086 124.471 187.141 124.849 187.25 125.203C187.365 125.552 187.529 125.859 187.742 126.125C187.961 126.391 188.224 126.599 188.531 126.75C188.844 126.901 189.198 126.977 189.594 126.977C190.104 126.977 190.536 126.872 190.891 126.664C191.245 126.456 191.555 126.177 191.82 125.828L192.695 126.523C192.513 126.799 192.281 127.062 192 127.312C191.719 127.562 191.372 127.766 190.961 127.922C190.555 128.078 190.073 128.156 189.516 128.156ZM195.93 121.227V128H194.477V119.547H195.852L195.93 121.227ZM195.633 123.453L194.961 123.43C194.966 122.852 195.042 122.318 195.188 121.828C195.333 121.333 195.549 120.904 195.836 120.539C196.122 120.174 196.479 119.893 196.906 119.695C197.333 119.492 197.828 119.391 198.391 119.391C198.786 119.391 199.151 119.448 199.484 119.562C199.818 119.672 200.107 119.846 200.352 120.086C200.596 120.326 200.786 120.633 200.922 121.008C201.057 121.383 201.125 121.836 201.125 122.367V128H199.68V122.438C199.68 121.995 199.604 121.641 199.453 121.375C199.307 121.109 199.099 120.917 198.828 120.797C198.557 120.672 198.24 120.609 197.875 120.609C197.448 120.609 197.091 120.685 196.805 120.836C196.518 120.987 196.289 121.195 196.117 121.461C195.945 121.727 195.82 122.031 195.742 122.375C195.669 122.714 195.633 123.073 195.633 123.453ZM201.109 122.656L200.141 122.953C200.146 122.49 200.221 122.044 200.367 121.617C200.518 121.19 200.734 120.81 201.016 120.477C201.302 120.143 201.654 119.88 202.07 119.688C202.487 119.49 202.964 119.391 203.5 119.391C203.953 119.391 204.354 119.451 204.703 119.57C205.057 119.69 205.354 119.875 205.594 120.125C205.839 120.37 206.023 120.685 206.148 121.07C206.273 121.456 206.336 121.914 206.336 122.445V128H204.883V122.43C204.883 121.956 204.807 121.589 204.656 121.328C204.51 121.062 204.302 120.878 204.031 120.773C203.766 120.664 203.448 120.609 203.078 120.609C202.76 120.609 202.479 120.664 202.234 120.773C201.99 120.883 201.784 121.034 201.617 121.227C201.451 121.414 201.323 121.63 201.234 121.875C201.151 122.12 201.109 122.38 201.109 122.656ZM213.695 126.047V119.547H215.148V128H213.766L213.695 126.047ZM213.969 124.266L214.57 124.25C214.57 124.812 214.51 125.333 214.391 125.812C214.276 126.286 214.089 126.698 213.828 127.047C213.568 127.396 213.227 127.669 212.805 127.867C212.383 128.06 211.87 128.156 211.266 128.156C210.854 128.156 210.477 128.096 210.133 127.977C209.794 127.857 209.503 127.672 209.258 127.422C209.013 127.172 208.823 126.846 208.688 126.445C208.557 126.044 208.492 125.562 208.492 125V119.547H209.938V125.016C209.938 125.396 209.979 125.711 210.062 125.961C210.151 126.206 210.268 126.401 210.414 126.547C210.565 126.688 210.732 126.786 210.914 126.844C211.102 126.901 211.294 126.93 211.492 126.93C212.107 126.93 212.594 126.812 212.953 126.578C213.312 126.339 213.57 126.018 213.727 125.617C213.888 125.211 213.969 124.76 213.969 124.266ZM222.336 126.555V122.203C222.336 121.87 222.268 121.581 222.133 121.336C222.003 121.086 221.805 120.893 221.539 120.758C221.273 120.622 220.945 120.555 220.555 120.555C220.19 120.555 219.87 120.617 219.594 120.742C219.323 120.867 219.109 121.031 218.953 121.234C218.802 121.438 218.727 121.656 218.727 121.891H217.281C217.281 121.589 217.359 121.289 217.516 120.992C217.672 120.695 217.896 120.427 218.188 120.188C218.484 119.943 218.839 119.75 219.25 119.609C219.667 119.464 220.13 119.391 220.641 119.391C221.255 119.391 221.797 119.495 222.266 119.703C222.74 119.911 223.109 120.227 223.375 120.648C223.646 121.065 223.781 121.589 223.781 122.219V126.156C223.781 126.438 223.805 126.737 223.852 127.055C223.904 127.372 223.979 127.646 224.078 127.875V128H222.57C222.497 127.833 222.44 127.612 222.398 127.336C222.357 127.055 222.336 126.794 222.336 126.555ZM222.586 122.875L222.602 123.891H221.141C220.729 123.891 220.362 123.924 220.039 123.992C219.716 124.055 219.445 124.151 219.227 124.281C219.008 124.411 218.841 124.576 218.727 124.773C218.612 124.966 218.555 125.193 218.555 125.453C218.555 125.719 218.615 125.961 218.734 126.18C218.854 126.398 219.034 126.573 219.273 126.703C219.518 126.828 219.818 126.891 220.172 126.891C220.615 126.891 221.005 126.797 221.344 126.609C221.682 126.422 221.951 126.193 222.148 125.922C222.352 125.651 222.461 125.388 222.477 125.133L223.094 125.828C223.057 126.047 222.958 126.289 222.797 126.555C222.635 126.82 222.419 127.076 222.148 127.32C221.883 127.56 221.565 127.76 221.195 127.922C220.831 128.078 220.419 128.156 219.961 128.156C219.388 128.156 218.885 128.044 218.453 127.82C218.026 127.596 217.693 127.297 217.453 126.922C217.219 126.542 217.102 126.117 217.102 125.648C217.102 125.195 217.19 124.797 217.367 124.453C217.544 124.104 217.799 123.815 218.133 123.586C218.466 123.352 218.867 123.174 219.336 123.055C219.805 122.935 220.328 122.875 220.906 122.875H222.586ZM232.398 127.125L234.75 119.547H236.297L232.906 129.305C232.828 129.513 232.724 129.737 232.594 129.977C232.469 130.221 232.307 130.453 232.109 130.672C231.911 130.891 231.672 131.068 231.391 131.203C231.115 131.344 230.784 131.414 230.398 131.414C230.284 131.414 230.138 131.398 229.961 131.367C229.784 131.336 229.659 131.31 229.586 131.289L229.578 130.117C229.62 130.122 229.685 130.128 229.773 130.133C229.867 130.143 229.932 130.148 229.969 130.148C230.297 130.148 230.576 130.104 230.805 130.016C231.034 129.932 231.227 129.789 231.383 129.586C231.544 129.388 231.682 129.115 231.797 128.766L232.398 127.125ZM230.672 119.547L232.867 126.109L233.242 127.633L232.203 128.164L229.094 119.547H230.672ZM242.461 126.555V122.203C242.461 121.87 242.393 121.581 242.258 121.336C242.128 121.086 241.93 120.893 241.664 120.758C241.398 120.622 241.07 120.555 240.68 120.555C240.315 120.555 239.995 120.617 239.719 120.742C239.448 120.867 239.234 121.031 239.078 121.234C238.927 121.438 238.852 121.656 238.852 121.891H237.406C237.406 121.589 237.484 121.289 237.641 120.992C237.797 120.695 238.021 120.427 238.312 120.188C238.609 119.943 238.964 119.75 239.375 119.609C239.792 119.464 240.255 119.391 240.766 119.391C241.38 119.391 241.922 119.495 242.391 119.703C242.865 119.911 243.234 120.227 243.5 120.648C243.771 121.065 243.906 121.589 243.906 122.219V126.156C243.906 126.438 243.93 126.737 243.977 127.055C244.029 127.372 244.104 127.646 244.203 127.875V128H242.695C242.622 127.833 242.565 127.612 242.523 127.336C242.482 127.055 242.461 126.794 242.461 126.555ZM242.711 122.875L242.727 123.891H241.266C240.854 123.891 240.487 123.924 240.164 123.992C239.841 124.055 239.57 124.151 239.352 124.281C239.133 124.411 238.966 124.576 238.852 124.773C238.737 124.966 238.68 125.193 238.68 125.453C238.68 125.719 238.74 125.961 238.859 126.18C238.979 126.398 239.159 126.573 239.398 126.703C239.643 126.828 239.943 126.891 240.297 126.891C240.74 126.891 241.13 126.797 241.469 126.609C241.807 126.422 242.076 126.193 242.273 125.922C242.477 125.651 242.586 125.388 242.602 125.133L243.219 125.828C243.182 126.047 243.083 126.289 242.922 126.555C242.76 126.82 242.544 127.076 242.273 127.32C242.008 127.56 241.69 127.76 241.32 127.922C240.956 128.078 240.544 128.156 240.086 128.156C239.513 128.156 239.01 128.044 238.578 127.82C238.151 127.596 237.818 127.297 237.578 126.922C237.344 126.542 237.227 126.117 237.227 125.648C237.227 125.195 237.315 124.797 237.492 124.453C237.669 124.104 237.924 123.815 238.258 123.586C238.591 123.352 238.992 123.174 239.461 123.055C239.93 122.935 240.453 122.875 241.031 122.875H242.711ZM247.625 121.352V128H246.18V119.547H247.547L247.625 121.352ZM247.281 123.453L246.68 123.43C246.685 122.852 246.771 122.318 246.938 121.828C247.104 121.333 247.339 120.904 247.641 120.539C247.943 120.174 248.302 119.893 248.719 119.695C249.141 119.492 249.607 119.391 250.117 119.391C250.534 119.391 250.909 119.448 251.242 119.562C251.576 119.672 251.859 119.849 252.094 120.094C252.333 120.339 252.516 120.656 252.641 121.047C252.766 121.432 252.828 121.904 252.828 122.461V128H251.375V122.445C251.375 122.003 251.31 121.648 251.18 121.383C251.049 121.112 250.859 120.917 250.609 120.797C250.359 120.672 250.052 120.609 249.688 120.609C249.328 120.609 249 120.685 248.703 120.836C248.411 120.987 248.159 121.195 247.945 121.461C247.737 121.727 247.573 122.031 247.453 122.375C247.339 122.714 247.281 123.073 247.281 123.453ZM260.5 119.547H261.812V127.82C261.812 128.565 261.661 129.201 261.359 129.727C261.057 130.253 260.635 130.651 260.094 130.922C259.557 131.198 258.938 131.336 258.234 131.336C257.943 131.336 257.599 131.289 257.203 131.195C256.812 131.107 256.427 130.953 256.047 130.734C255.672 130.521 255.357 130.232 255.102 129.867L255.859 129.008C256.214 129.435 256.583 129.732 256.969 129.898C257.359 130.065 257.745 130.148 258.125 130.148C258.583 130.148 258.979 130.062 259.312 129.891C259.646 129.719 259.904 129.464 260.086 129.125C260.273 128.792 260.367 128.38 260.367 127.891V121.406L260.5 119.547ZM254.68 123.867V123.703C254.68 123.057 254.755 122.471 254.906 121.945C255.062 121.414 255.284 120.958 255.57 120.578C255.862 120.198 256.214 119.906 256.625 119.703C257.036 119.495 257.5 119.391 258.016 119.391C258.547 119.391 259.01 119.484 259.406 119.672C259.807 119.854 260.146 120.122 260.422 120.477C260.703 120.826 260.924 121.247 261.086 121.742C261.247 122.237 261.359 122.797 261.422 123.422V124.141C261.365 124.76 261.253 125.318 261.086 125.812C260.924 126.307 260.703 126.729 260.422 127.078C260.146 127.427 259.807 127.695 259.406 127.883C259.005 128.065 258.536 128.156 258 128.156C257.495 128.156 257.036 128.049 256.625 127.836C256.219 127.622 255.87 127.323 255.578 126.938C255.286 126.552 255.062 126.099 254.906 125.578C254.755 125.052 254.68 124.482 254.68 123.867ZM256.125 123.703V123.867C256.125 124.289 256.167 124.685 256.25 125.055C256.339 125.424 256.471 125.75 256.648 126.031C256.831 126.312 257.062 126.534 257.344 126.695C257.625 126.852 257.961 126.93 258.352 126.93C258.831 126.93 259.227 126.828 259.539 126.625C259.852 126.422 260.099 126.154 260.281 125.82C260.469 125.487 260.615 125.125 260.719 124.734V122.852C260.661 122.565 260.573 122.289 260.453 122.023C260.339 121.753 260.188 121.513 260 121.305C259.818 121.091 259.591 120.922 259.32 120.797C259.049 120.672 258.732 120.609 258.367 120.609C257.971 120.609 257.63 120.693 257.344 120.859C257.062 121.021 256.831 121.245 256.648 121.531C256.471 121.812 256.339 122.141 256.25 122.516C256.167 122.885 256.125 123.281 256.125 123.703ZM272.961 126.555V122.203C272.961 121.87 272.893 121.581 272.758 121.336C272.628 121.086 272.43 120.893 272.164 120.758C271.898 120.622 271.57 120.555 271.18 120.555C270.815 120.555 270.495 120.617 270.219 120.742C269.948 120.867 269.734 121.031 269.578 121.234C269.427 121.438 269.352 121.656 269.352 121.891H267.906C267.906 121.589 267.984 121.289 268.141 120.992C268.297 120.695 268.521 120.427 268.812 120.188C269.109 119.943 269.464 119.75 269.875 119.609C270.292 119.464 270.755 119.391 271.266 119.391C271.88 119.391 272.422 119.495 272.891 119.703C273.365 119.911 273.734 120.227 274 120.648C274.271 121.065 274.406 121.589 274.406 122.219V126.156C274.406 126.438 274.43 126.737 274.477 127.055C274.529 127.372 274.604 127.646 274.703 127.875V128H273.195C273.122 127.833 273.065 127.612 273.023 127.336C272.982 127.055 272.961 126.794 272.961 126.555ZM273.211 122.875L273.227 123.891H271.766C271.354 123.891 270.987 123.924 270.664 123.992C270.341 124.055 270.07 124.151 269.852 124.281C269.633 124.411 269.466 124.576 269.352 124.773C269.237 124.966 269.18 125.193 269.18 125.453C269.18 125.719 269.24 125.961 269.359 126.18C269.479 126.398 269.659 126.573 269.898 126.703C270.143 126.828 270.443 126.891 270.797 126.891C271.24 126.891 271.63 126.797 271.969 126.609C272.307 126.422 272.576 126.193 272.773 125.922C272.977 125.651 273.086 125.388 273.102 125.133L273.719 125.828C273.682 126.047 273.583 126.289 273.422 126.555C273.26 126.82 273.044 127.076 272.773 127.32C272.508 127.56 272.19 127.76 271.82 127.922C271.456 128.078 271.044 128.156 270.586 128.156C270.013 128.156 269.51 128.044 269.078 127.82C268.651 127.596 268.318 127.297 268.078 126.922C267.844 126.542 267.727 126.117 267.727 125.648C267.727 125.195 267.815 124.797 267.992 124.453C268.169 124.104 268.424 123.815 268.758 123.586C269.091 123.352 269.492 123.174 269.961 123.055C270.43 122.935 270.953 122.875 271.531 122.875H273.211ZM282.008 126.359V116H283.461V128H282.133L282.008 126.359ZM276.32 123.867V123.703C276.32 123.057 276.398 122.471 276.555 121.945C276.716 121.414 276.943 120.958 277.234 120.578C277.531 120.198 277.883 119.906 278.289 119.703C278.701 119.495 279.159 119.391 279.664 119.391C280.195 119.391 280.659 119.484 281.055 119.672C281.456 119.854 281.794 120.122 282.07 120.477C282.352 120.826 282.573 121.247 282.734 121.742C282.896 122.237 283.008 122.797 283.07 123.422V124.141C283.013 124.76 282.901 125.318 282.734 125.812C282.573 126.307 282.352 126.729 282.07 127.078C281.794 127.427 281.456 127.695 281.055 127.883C280.654 128.065 280.185 128.156 279.648 128.156C279.154 128.156 278.701 128.049 278.289 127.836C277.883 127.622 277.531 127.323 277.234 126.938C276.943 126.552 276.716 126.099 276.555 125.578C276.398 125.052 276.32 124.482 276.32 123.867ZM277.773 123.703V123.867C277.773 124.289 277.815 124.685 277.898 125.055C277.987 125.424 278.122 125.75 278.305 126.031C278.487 126.312 278.719 126.534 279 126.695C279.281 126.852 279.617 126.93 280.008 126.93C280.487 126.93 280.88 126.828 281.188 126.625C281.5 126.422 281.75 126.154 281.938 125.82C282.125 125.487 282.271 125.125 282.375 124.734V122.852C282.312 122.565 282.221 122.289 282.102 122.023C281.987 121.753 281.836 121.513 281.648 121.305C281.466 121.091 281.24 120.922 280.969 120.797C280.703 120.672 280.388 120.609 280.023 120.609C279.628 120.609 279.286 120.693 279 120.859C278.719 121.021 278.487 121.245 278.305 121.531C278.122 121.812 277.987 122.141 277.898 122.516C277.815 122.885 277.773 123.281 277.773 123.703ZM290.695 126.555V122.203C290.695 121.87 290.628 121.581 290.492 121.336C290.362 121.086 290.164 120.893 289.898 120.758C289.633 120.622 289.305 120.555 288.914 120.555C288.549 120.555 288.229 120.617 287.953 120.742C287.682 120.867 287.469 121.031 287.312 121.234C287.161 121.438 287.086 121.656 287.086 121.891H285.641C285.641 121.589 285.719 121.289 285.875 120.992C286.031 120.695 286.255 120.427 286.547 120.188C286.844 119.943 287.198 119.75 287.609 119.609C288.026 119.464 288.49 119.391 289 119.391C289.615 119.391 290.156 119.495 290.625 119.703C291.099 119.911 291.469 120.227 291.734 120.648C292.005 121.065 292.141 121.589 292.141 122.219V126.156C292.141 126.438 292.164 126.737 292.211 127.055C292.263 127.372 292.339 127.646 292.438 127.875V128H290.93C290.857 127.833 290.799 127.612 290.758 127.336C290.716 127.055 290.695 126.794 290.695 126.555ZM290.945 122.875L290.961 123.891H289.5C289.089 123.891 288.721 123.924 288.398 123.992C288.076 124.055 287.805 124.151 287.586 124.281C287.367 124.411 287.201 124.576 287.086 124.773C286.971 124.966 286.914 125.193 286.914 125.453C286.914 125.719 286.974 125.961 287.094 126.18C287.214 126.398 287.393 126.573 287.633 126.703C287.878 126.828 288.177 126.891 288.531 126.891C288.974 126.891 289.365 126.797 289.703 126.609C290.042 126.422 290.31 126.193 290.508 125.922C290.711 125.651 290.82 125.388 290.836 125.133L291.453 125.828C291.417 126.047 291.318 126.289 291.156 126.555C290.995 126.82 290.779 127.076 290.508 127.32C290.242 127.56 289.924 127.76 289.555 127.922C289.19 128.078 288.779 128.156 288.32 128.156C287.747 128.156 287.245 128.044 286.812 127.82C286.385 127.596 286.052 127.297 285.812 126.922C285.578 126.542 285.461 126.117 285.461 125.648C285.461 125.195 285.549 124.797 285.727 124.453C285.904 124.104 286.159 123.815 286.492 123.586C286.826 123.352 287.227 123.174 287.695 123.055C288.164 122.935 288.688 122.875 289.266 122.875H290.945ZM299.828 121.172V131.25H298.375V119.547H299.703L299.828 121.172ZM305.523 123.703V123.867C305.523 124.482 305.451 125.052 305.305 125.578C305.159 126.099 304.945 126.552 304.664 126.938C304.388 127.323 304.047 127.622 303.641 127.836C303.234 128.049 302.768 128.156 302.242 128.156C301.706 128.156 301.232 128.068 300.82 127.891C300.409 127.714 300.06 127.456 299.773 127.117C299.487 126.779 299.258 126.372 299.086 125.898C298.919 125.424 298.805 124.891 298.742 124.297V123.422C298.805 122.797 298.922 122.237 299.094 121.742C299.266 121.247 299.492 120.826 299.773 120.477C300.06 120.122 300.406 119.854 300.812 119.672C301.219 119.484 301.688 119.391 302.219 119.391C302.75 119.391 303.221 119.495 303.633 119.703C304.044 119.906 304.391 120.198 304.672 120.578C304.953 120.958 305.164 121.414 305.305 121.945C305.451 122.471 305.523 123.057 305.523 123.703ZM304.07 123.867V123.703C304.07 123.281 304.026 122.885 303.938 122.516C303.849 122.141 303.711 121.812 303.523 121.531C303.341 121.245 303.107 121.021 302.82 120.859C302.534 120.693 302.193 120.609 301.797 120.609C301.432 120.609 301.115 120.672 300.844 120.797C300.578 120.922 300.352 121.091 300.164 121.305C299.977 121.513 299.823 121.753 299.703 122.023C299.589 122.289 299.503 122.565 299.445 122.852V124.875C299.549 125.24 299.695 125.583 299.883 125.906C300.07 126.224 300.32 126.482 300.633 126.68C300.945 126.872 301.339 126.969 301.812 126.969C302.203 126.969 302.539 126.888 302.82 126.727C303.107 126.56 303.341 126.333 303.523 126.047C303.711 125.76 303.849 125.432 303.938 125.062C304.026 124.688 304.07 124.289 304.07 123.867ZM312.352 126.555V122.203C312.352 121.87 312.284 121.581 312.148 121.336C312.018 121.086 311.82 120.893 311.555 120.758C311.289 120.622 310.961 120.555 310.57 120.555C310.206 120.555 309.885 120.617 309.609 120.742C309.339 120.867 309.125 121.031 308.969 121.234C308.818 121.438 308.742 121.656 308.742 121.891H307.297C307.297 121.589 307.375 121.289 307.531 120.992C307.688 120.695 307.911 120.427 308.203 120.188C308.5 119.943 308.854 119.75 309.266 119.609C309.682 119.464 310.146 119.391 310.656 119.391C311.271 119.391 311.812 119.495 312.281 119.703C312.755 119.911 313.125 120.227 313.391 120.648C313.661 121.065 313.797 121.589 313.797 122.219V126.156C313.797 126.438 313.82 126.737 313.867 127.055C313.919 127.372 313.995 127.646 314.094 127.875V128H312.586C312.513 127.833 312.456 127.612 312.414 127.336C312.372 127.055 312.352 126.794 312.352 126.555ZM312.602 122.875L312.617 123.891H311.156C310.745 123.891 310.378 123.924 310.055 123.992C309.732 124.055 309.461 124.151 309.242 124.281C309.023 124.411 308.857 124.576 308.742 124.773C308.628 124.966 308.57 125.193 308.57 125.453C308.57 125.719 308.63 125.961 308.75 126.18C308.87 126.398 309.049 126.573 309.289 126.703C309.534 126.828 309.833 126.891 310.188 126.891C310.63 126.891 311.021 126.797 311.359 126.609C311.698 126.422 311.966 126.193 312.164 125.922C312.367 125.651 312.477 125.388 312.492 125.133L313.109 125.828C313.073 126.047 312.974 126.289 312.812 126.555C312.651 126.82 312.435 127.076 312.164 127.32C311.898 127.56 311.581 127.76 311.211 127.922C310.846 128.078 310.435 128.156 309.977 128.156C309.404 128.156 308.901 128.044 308.469 127.82C308.042 127.596 307.708 127.297 307.469 126.922C307.234 126.542 307.117 126.117 307.117 125.648C307.117 125.195 307.206 124.797 307.383 124.453C307.56 124.104 307.815 123.815 308.148 123.586C308.482 123.352 308.883 123.174 309.352 123.055C309.82 122.935 310.344 122.875 310.922 122.875H312.602ZM321.398 126.359V116H322.852V128H321.523L321.398 126.359ZM315.711 123.867V123.703C315.711 123.057 315.789 122.471 315.945 121.945C316.107 121.414 316.333 120.958 316.625 120.578C316.922 120.198 317.273 119.906 317.68 119.703C318.091 119.495 318.549 119.391 319.055 119.391C319.586 119.391 320.049 119.484 320.445 119.672C320.846 119.854 321.185 120.122 321.461 120.477C321.742 120.826 321.964 121.247 322.125 121.742C322.286 122.237 322.398 122.797 322.461 123.422V124.141C322.404 124.76 322.292 125.318 322.125 125.812C321.964 126.307 321.742 126.729 321.461 127.078C321.185 127.427 320.846 127.695 320.445 127.883C320.044 128.065 319.576 128.156 319.039 128.156C318.544 128.156 318.091 128.049 317.68 127.836C317.273 127.622 316.922 127.323 316.625 126.938C316.333 126.552 316.107 126.099 315.945 125.578C315.789 125.052 315.711 124.482 315.711 123.867ZM317.164 123.703V123.867C317.164 124.289 317.206 124.685 317.289 125.055C317.378 125.424 317.513 125.75 317.695 126.031C317.878 126.312 318.109 126.534 318.391 126.695C318.672 126.852 319.008 126.93 319.398 126.93C319.878 126.93 320.271 126.828 320.578 126.625C320.891 126.422 321.141 126.154 321.328 125.82C321.516 125.487 321.661 125.125 321.766 124.734V122.852C321.703 122.565 321.612 122.289 321.492 122.023C321.378 121.753 321.227 121.513 321.039 121.305C320.857 121.091 320.63 120.922 320.359 120.797C320.094 120.672 319.779 120.609 319.414 120.609C319.018 120.609 318.677 120.693 318.391 120.859C318.109 121.021 317.878 121.245 317.695 121.531C317.513 121.812 317.378 122.141 317.289 122.516C317.206 122.885 317.164 123.281 317.164 123.703ZM330.086 126.555V122.203C330.086 121.87 330.018 121.581 329.883 121.336C329.753 121.086 329.555 120.893 329.289 120.758C329.023 120.622 328.695 120.555 328.305 120.555C327.94 120.555 327.62 120.617 327.344 120.742C327.073 120.867 326.859 121.031 326.703 121.234C326.552 121.438 326.477 121.656 326.477 121.891H325.031C325.031 121.589 325.109 121.289 325.266 120.992C325.422 120.695 325.646 120.427 325.938 120.188C326.234 119.943 326.589 119.75 327 119.609C327.417 119.464 327.88 119.391 328.391 119.391C329.005 119.391 329.547 119.495 330.016 119.703C330.49 119.911 330.859 120.227 331.125 120.648C331.396 121.065 331.531 121.589 331.531 122.219V126.156C331.531 126.438 331.555 126.737 331.602 127.055C331.654 127.372 331.729 127.646 331.828 127.875V128H330.32C330.247 127.833 330.19 127.612 330.148 127.336C330.107 127.055 330.086 126.794 330.086 126.555ZM330.336 122.875L330.352 123.891H328.891C328.479 123.891 328.112 123.924 327.789 123.992C327.466 124.055 327.195 124.151 326.977 124.281C326.758 124.411 326.591 124.576 326.477 124.773C326.362 124.966 326.305 125.193 326.305 125.453C326.305 125.719 326.365 125.961 326.484 126.18C326.604 126.398 326.784 126.573 327.023 126.703C327.268 126.828 327.568 126.891 327.922 126.891C328.365 126.891 328.755 126.797 329.094 126.609C329.432 126.422 329.701 126.193 329.898 125.922C330.102 125.651 330.211 125.388 330.227 125.133L330.844 125.828C330.807 126.047 330.708 126.289 330.547 126.555C330.385 126.82 330.169 127.076 329.898 127.32C329.633 127.56 329.315 127.76 328.945 127.922C328.581 128.078 328.169 128.156 327.711 128.156C327.138 128.156 326.635 128.044 326.203 127.82C325.776 127.596 325.443 127.297 325.203 126.922C324.969 126.542 324.852 126.117 324.852 125.648C324.852 125.195 324.94 124.797 325.117 124.453C325.294 124.104 325.549 123.815 325.883 123.586C326.216 123.352 326.617 123.174 327.086 123.055C327.555 122.935 328.078 122.875 328.656 122.875H330.336ZM339.344 116V128H337.891V116H339.344ZM346.648 126.555V122.203C346.648 121.87 346.581 121.581 346.445 121.336C346.315 121.086 346.117 120.893 345.852 120.758C345.586 120.622 345.258 120.555 344.867 120.555C344.503 120.555 344.182 120.617 343.906 120.742C343.635 120.867 343.422 121.031 343.266 121.234C343.115 121.438 343.039 121.656 343.039 121.891H341.594C341.594 121.589 341.672 121.289 341.828 120.992C341.984 120.695 342.208 120.427 342.5 120.188C342.797 119.943 343.151 119.75 343.562 119.609C343.979 119.464 344.443 119.391 344.953 119.391C345.568 119.391 346.109 119.495 346.578 119.703C347.052 119.911 347.422 120.227 347.688 120.648C347.958 121.065 348.094 121.589 348.094 122.219V126.156C348.094 126.438 348.117 126.737 348.164 127.055C348.216 127.372 348.292 127.646 348.391 127.875V128H346.883C346.81 127.833 346.753 127.612 346.711 127.336C346.669 127.055 346.648 126.794 346.648 126.555ZM346.898 122.875L346.914 123.891H345.453C345.042 123.891 344.674 123.924 344.352 123.992C344.029 124.055 343.758 124.151 343.539 124.281C343.32 124.411 343.154 124.576 343.039 124.773C342.924 124.966 342.867 125.193 342.867 125.453C342.867 125.719 342.927 125.961 343.047 126.18C343.167 126.398 343.346 126.573 343.586 126.703C343.831 126.828 344.13 126.891 344.484 126.891C344.927 126.891 345.318 126.797 345.656 126.609C345.995 126.422 346.263 126.193 346.461 125.922C346.664 125.651 346.773 125.388 346.789 125.133L347.406 125.828C347.37 126.047 347.271 126.289 347.109 126.555C346.948 126.82 346.732 127.076 346.461 127.32C346.195 127.56 345.878 127.76 345.508 127.922C345.143 128.078 344.732 128.156 344.273 128.156C343.701 128.156 343.198 128.044 342.766 127.82C342.339 127.596 342.005 127.297 341.766 126.922C341.531 126.542 341.414 126.117 341.414 125.648C341.414 125.195 341.503 124.797 341.68 124.453C341.857 124.104 342.112 123.815 342.445 123.586C342.779 123.352 343.18 123.174 343.648 123.055C344.117 122.935 344.641 122.875 345.219 122.875H346.898ZM351.812 121.352V128H350.367V119.547H351.734L351.812 121.352ZM351.469 123.453L350.867 123.43C350.872 122.852 350.958 122.318 351.125 121.828C351.292 121.333 351.526 120.904 351.828 120.539C352.13 120.174 352.49 119.893 352.906 119.695C353.328 119.492 353.794 119.391 354.305 119.391C354.721 119.391 355.096 119.448 355.43 119.562C355.763 119.672 356.047 119.849 356.281 120.094C356.521 120.339 356.703 120.656 356.828 121.047C356.953 121.432 357.016 121.904 357.016 122.461V128H355.562V122.445C355.562 122.003 355.497 121.648 355.367 121.383C355.237 121.112 355.047 120.917 354.797 120.797C354.547 120.672 354.24 120.609 353.875 120.609C353.516 120.609 353.188 120.685 352.891 120.836C352.599 120.987 352.346 121.195 352.133 121.461C351.924 121.727 351.76 122.031 351.641 122.375C351.526 122.714 351.469 123.073 351.469 123.453ZM364.539 126.359V116H365.992V128H364.664L364.539 126.359ZM358.852 123.867V123.703C358.852 123.057 358.93 122.471 359.086 121.945C359.247 121.414 359.474 120.958 359.766 120.578C360.062 120.198 360.414 119.906 360.82 119.703C361.232 119.495 361.69 119.391 362.195 119.391C362.727 119.391 363.19 119.484 363.586 119.672C363.987 119.854 364.326 120.122 364.602 120.477C364.883 120.826 365.104 121.247 365.266 121.742C365.427 122.237 365.539 122.797 365.602 123.422V124.141C365.544 124.76 365.432 125.318 365.266 125.812C365.104 126.307 364.883 126.729 364.602 127.078C364.326 127.427 363.987 127.695 363.586 127.883C363.185 128.065 362.716 128.156 362.18 128.156C361.685 128.156 361.232 128.049 360.82 127.836C360.414 127.622 360.062 127.323 359.766 126.938C359.474 126.552 359.247 126.099 359.086 125.578C358.93 125.052 358.852 124.482 358.852 123.867ZM360.305 123.703V123.867C360.305 124.289 360.346 124.685 360.43 125.055C360.518 125.424 360.654 125.75 360.836 126.031C361.018 126.312 361.25 126.534 361.531 126.695C361.812 126.852 362.148 126.93 362.539 126.93C363.018 126.93 363.411 126.828 363.719 126.625C364.031 126.422 364.281 126.154 364.469 125.82C364.656 125.487 364.802 125.125 364.906 124.734V122.852C364.844 122.565 364.753 122.289 364.633 122.023C364.518 121.753 364.367 121.513 364.18 121.305C363.997 121.091 363.771 120.922 363.5 120.797C363.234 120.672 362.919 120.609 362.555 120.609C362.159 120.609 361.818 120.693 361.531 120.859C361.25 121.021 361.018 121.245 360.836 121.531C360.654 121.812 360.518 122.141 360.43 122.516C360.346 122.885 360.305 123.281 360.305 123.703ZM369.812 119.547V128H368.359V119.547H369.812ZM368.25 117.305C368.25 117.07 368.32 116.872 368.461 116.711C368.607 116.549 368.82 116.469 369.102 116.469C369.378 116.469 369.589 116.549 369.734 116.711C369.885 116.872 369.961 117.07 369.961 117.305C369.961 117.529 369.885 117.721 369.734 117.883C369.589 118.039 369.378 118.117 369.102 118.117C368.82 118.117 368.607 118.039 368.461 117.883C368.32 117.721 368.25 117.529 368.25 117.305ZM373.578 121.352V128H372.133V119.547H373.5L373.578 121.352ZM373.234 123.453L372.633 123.43C372.638 122.852 372.724 122.318 372.891 121.828C373.057 121.333 373.292 120.904 373.594 120.539C373.896 120.174 374.255 119.893 374.672 119.695C375.094 119.492 375.56 119.391 376.07 119.391C376.487 119.391 376.862 119.448 377.195 119.562C377.529 119.672 377.812 119.849 378.047 120.094C378.286 120.339 378.469 120.656 378.594 121.047C378.719 121.432 378.781 121.904 378.781 122.461V128H377.328V122.445C377.328 122.003 377.263 121.648 377.133 121.383C377.003 121.112 376.812 120.917 376.562 120.797C376.312 120.672 376.005 120.609 375.641 120.609C375.281 120.609 374.953 120.685 374.656 120.836C374.365 120.987 374.112 121.195 373.898 121.461C373.69 121.727 373.526 122.031 373.406 122.375C373.292 122.714 373.234 123.073 373.234 123.453ZM386.453 119.547H387.766V127.82C387.766 128.565 387.615 129.201 387.312 129.727C387.01 130.253 386.589 130.651 386.047 130.922C385.51 131.198 384.891 131.336 384.188 131.336C383.896 131.336 383.552 131.289 383.156 131.195C382.766 131.107 382.38 130.953 382 130.734C381.625 130.521 381.31 130.232 381.055 129.867L381.812 129.008C382.167 129.435 382.536 129.732 382.922 129.898C383.312 130.065 383.698 130.148 384.078 130.148C384.536 130.148 384.932 130.062 385.266 129.891C385.599 129.719 385.857 129.464 386.039 129.125C386.227 128.792 386.32 128.38 386.32 127.891V121.406L386.453 119.547ZM380.633 123.867V123.703C380.633 123.057 380.708 122.471 380.859 121.945C381.016 121.414 381.237 120.958 381.523 120.578C381.815 120.198 382.167 119.906 382.578 119.703C382.99 119.495 383.453 119.391 383.969 119.391C384.5 119.391 384.964 119.484 385.359 119.672C385.76 119.854 386.099 120.122 386.375 120.477C386.656 120.826 386.878 121.247 387.039 121.742C387.201 122.237 387.312 122.797 387.375 123.422V124.141C387.318 124.76 387.206 125.318 387.039 125.812C386.878 126.307 386.656 126.729 386.375 127.078C386.099 127.427 385.76 127.695 385.359 127.883C384.958 128.065 384.49 128.156 383.953 128.156C383.448 128.156 382.99 128.049 382.578 127.836C382.172 127.622 381.823 127.323 381.531 126.938C381.24 126.552 381.016 126.099 380.859 125.578C380.708 125.052 380.633 124.482 380.633 123.867ZM382.078 123.703V123.867C382.078 124.289 382.12 124.685 382.203 125.055C382.292 125.424 382.424 125.75 382.602 126.031C382.784 126.312 383.016 126.534 383.297 126.695C383.578 126.852 383.914 126.93 384.305 126.93C384.784 126.93 385.18 126.828 385.492 126.625C385.805 126.422 386.052 126.154 386.234 125.82C386.422 125.487 386.568 125.125 386.672 124.734V122.852C386.615 122.565 386.526 122.289 386.406 122.023C386.292 121.753 386.141 121.513 385.953 121.305C385.771 121.091 385.544 120.922 385.273 120.797C385.003 120.672 384.685 120.609 384.32 120.609C383.924 120.609 383.583 120.693 383.297 120.859C383.016 121.021 382.784 121.245 382.602 121.531C382.424 121.812 382.292 122.141 382.203 122.516C382.12 122.885 382.078 123.281 382.078 123.703ZM395.375 121.172V131.25H393.922V119.547H395.25L395.375 121.172ZM401.07 123.703V123.867C401.07 124.482 400.997 125.052 400.852 125.578C400.706 126.099 400.492 126.552 400.211 126.938C399.935 127.323 399.594 127.622 399.188 127.836C398.781 128.049 398.315 128.156 397.789 128.156C397.253 128.156 396.779 128.068 396.367 127.891C395.956 127.714 395.607 127.456 395.32 127.117C395.034 126.779 394.805 126.372 394.633 125.898C394.466 125.424 394.352 124.891 394.289 124.297V123.422C394.352 122.797 394.469 122.237 394.641 121.742C394.812 121.247 395.039 120.826 395.32 120.477C395.607 120.122 395.953 119.854 396.359 119.672C396.766 119.484 397.234 119.391 397.766 119.391C398.297 119.391 398.768 119.495 399.18 119.703C399.591 119.906 399.938 120.198 400.219 120.578C400.5 120.958 400.711 121.414 400.852 121.945C400.997 122.471 401.07 123.057 401.07 123.703ZM399.617 123.867V123.703C399.617 123.281 399.573 122.885 399.484 122.516C399.396 122.141 399.258 121.812 399.07 121.531C398.888 121.245 398.654 121.021 398.367 120.859C398.081 120.693 397.74 120.609 397.344 120.609C396.979 120.609 396.661 120.672 396.391 120.797C396.125 120.922 395.898 121.091 395.711 121.305C395.523 121.513 395.37 121.753 395.25 122.023C395.135 122.289 395.049 122.565 394.992 122.852V124.875C395.096 125.24 395.242 125.583 395.43 125.906C395.617 126.224 395.867 126.482 396.18 126.68C396.492 126.872 396.885 126.969 397.359 126.969C397.75 126.969 398.086 126.888 398.367 126.727C398.654 126.56 398.888 126.333 399.07 126.047C399.258 125.76 399.396 125.432 399.484 125.062C399.573 124.688 399.617 124.289 399.617 123.867ZM407.898 126.555V122.203C407.898 121.87 407.831 121.581 407.695 121.336C407.565 121.086 407.367 120.893 407.102 120.758C406.836 120.622 406.508 120.555 406.117 120.555C405.753 120.555 405.432 120.617 405.156 120.742C404.885 120.867 404.672 121.031 404.516 121.234C404.365 121.438 404.289 121.656 404.289 121.891H402.844C402.844 121.589 402.922 121.289 403.078 120.992C403.234 120.695 403.458 120.427 403.75 120.188C404.047 119.943 404.401 119.75 404.812 119.609C405.229 119.464 405.693 119.391 406.203 119.391C406.818 119.391 407.359 119.495 407.828 119.703C408.302 119.911 408.672 120.227 408.938 120.648C409.208 121.065 409.344 121.589 409.344 122.219V126.156C409.344 126.438 409.367 126.737 409.414 127.055C409.466 127.372 409.542 127.646 409.641 127.875V128H408.133C408.06 127.833 408.003 127.612 407.961 127.336C407.919 127.055 407.898 126.794 407.898 126.555ZM408.148 122.875L408.164 123.891H406.703C406.292 123.891 405.924 123.924 405.602 123.992C405.279 124.055 405.008 124.151 404.789 124.281C404.57 124.411 404.404 124.576 404.289 124.773C404.174 124.966 404.117 125.193 404.117 125.453C404.117 125.719 404.177 125.961 404.297 126.18C404.417 126.398 404.596 126.573 404.836 126.703C405.081 126.828 405.38 126.891 405.734 126.891C406.177 126.891 406.568 126.797 406.906 126.609C407.245 126.422 407.513 126.193 407.711 125.922C407.914 125.651 408.023 125.388 408.039 125.133L408.656 125.828C408.62 126.047 408.521 126.289 408.359 126.555C408.198 126.82 407.982 127.076 407.711 127.32C407.445 127.56 407.128 127.76 406.758 127.922C406.393 128.078 405.982 128.156 405.523 128.156C404.951 128.156 404.448 128.044 404.016 127.82C403.589 127.596 403.255 127.297 403.016 126.922C402.781 126.542 402.664 126.117 402.664 125.648C402.664 125.195 402.753 124.797 402.93 124.453C403.107 124.104 403.362 123.815 403.695 123.586C404.029 123.352 404.43 123.174 404.898 123.055C405.367 122.935 405.891 122.875 406.469 122.875H408.148ZM417.094 119.547H418.406V127.82C418.406 128.565 418.255 129.201 417.953 129.727C417.651 130.253 417.229 130.651 416.688 130.922C416.151 131.198 415.531 131.336 414.828 131.336C414.536 131.336 414.193 131.289 413.797 131.195C413.406 131.107 413.021 130.953 412.641 130.734C412.266 130.521 411.951 130.232 411.695 129.867L412.453 129.008C412.807 129.435 413.177 129.732 413.562 129.898C413.953 130.065 414.339 130.148 414.719 130.148C415.177 130.148 415.573 130.062 415.906 129.891C416.24 129.719 416.497 129.464 416.68 129.125C416.867 128.792 416.961 128.38 416.961 127.891V121.406L417.094 119.547ZM411.273 123.867V123.703C411.273 123.057 411.349 122.471 411.5 121.945C411.656 121.414 411.878 120.958 412.164 120.578C412.456 120.198 412.807 119.906 413.219 119.703C413.63 119.495 414.094 119.391 414.609 119.391C415.141 119.391 415.604 119.484 416 119.672C416.401 119.854 416.74 120.122 417.016 120.477C417.297 120.826 417.518 121.247 417.68 121.742C417.841 122.237 417.953 122.797 418.016 123.422V124.141C417.958 124.76 417.846 125.318 417.68 125.812C417.518 126.307 417.297 126.729 417.016 127.078C416.74 127.427 416.401 127.695 416 127.883C415.599 128.065 415.13 128.156 414.594 128.156C414.089 128.156 413.63 128.049 413.219 127.836C412.812 127.622 412.464 127.323 412.172 126.938C411.88 126.552 411.656 126.099 411.5 125.578C411.349 125.052 411.273 124.482 411.273 123.867ZM412.719 123.703V123.867C412.719 124.289 412.76 124.685 412.844 125.055C412.932 125.424 413.065 125.75 413.242 126.031C413.424 126.312 413.656 126.534 413.938 126.695C414.219 126.852 414.555 126.93 414.945 126.93C415.424 126.93 415.82 126.828 416.133 126.625C416.445 126.422 416.693 126.154 416.875 125.82C417.062 125.487 417.208 125.125 417.312 124.734V122.852C417.255 122.565 417.167 122.289 417.047 122.023C416.932 121.753 416.781 121.513 416.594 121.305C416.411 121.091 416.185 120.922 415.914 120.797C415.643 120.672 415.326 120.609 414.961 120.609C414.565 120.609 414.224 120.693 413.938 120.859C413.656 121.021 413.424 121.245 413.242 121.531C413.065 121.812 412.932 122.141 412.844 122.516C412.76 122.885 412.719 123.281 412.719 123.703ZM424.109 128.156C423.521 128.156 422.987 128.057 422.508 127.859C422.034 127.656 421.625 127.372 421.281 127.008C420.943 126.643 420.682 126.211 420.5 125.711C420.318 125.211 420.227 124.664 420.227 124.07V123.742C420.227 123.055 420.328 122.443 420.531 121.906C420.734 121.365 421.01 120.906 421.359 120.531C421.708 120.156 422.104 119.872 422.547 119.68C422.99 119.487 423.448 119.391 423.922 119.391C424.526 119.391 425.047 119.495 425.484 119.703C425.927 119.911 426.289 120.203 426.57 120.578C426.852 120.948 427.06 121.385 427.195 121.891C427.331 122.391 427.398 122.938 427.398 123.531V124.18H421.086V123H425.953V122.891C425.932 122.516 425.854 122.151 425.719 121.797C425.589 121.443 425.38 121.151 425.094 120.922C424.807 120.693 424.417 120.578 423.922 120.578C423.594 120.578 423.292 120.648 423.016 120.789C422.74 120.924 422.503 121.128 422.305 121.398C422.107 121.669 421.953 122 421.844 122.391C421.734 122.781 421.68 123.232 421.68 123.742V124.07C421.68 124.471 421.734 124.849 421.844 125.203C421.958 125.552 422.122 125.859 422.336 126.125C422.555 126.391 422.818 126.599 423.125 126.75C423.438 126.901 423.792 126.977 424.188 126.977C424.698 126.977 425.13 126.872 425.484 126.664C425.839 126.456 426.148 126.177 426.414 125.828L427.289 126.523C427.107 126.799 426.875 127.062 426.594 127.312C426.312 127.562 425.966 127.766 425.555 127.922C425.148 128.078 424.667 128.156 424.109 128.156ZM437.328 122.68H434.445L434.43 121.469H437.047C437.479 121.469 437.857 121.396 438.18 121.25C438.503 121.104 438.753 120.896 438.93 120.625C439.112 120.349 439.203 120.021 439.203 119.641C439.203 119.224 439.122 118.885 438.961 118.625C438.805 118.359 438.562 118.167 438.234 118.047C437.911 117.922 437.5 117.859 437 117.859H434.781V128H433.273V116.625H437C437.583 116.625 438.104 116.685 438.562 116.805C439.021 116.919 439.409 117.102 439.727 117.352C440.049 117.596 440.294 117.909 440.461 118.289C440.628 118.669 440.711 119.125 440.711 119.656C440.711 120.125 440.591 120.549 440.352 120.93C440.112 121.305 439.779 121.612 439.352 121.852C438.93 122.091 438.435 122.245 437.867 122.312L437.328 122.68ZM437.258 128H433.852L434.703 126.773H437.258C437.737 126.773 438.143 126.69 438.477 126.523C438.815 126.357 439.073 126.122 439.25 125.82C439.427 125.513 439.516 125.151 439.516 124.734C439.516 124.312 439.44 123.948 439.289 123.641C439.138 123.333 438.901 123.096 438.578 122.93C438.255 122.763 437.839 122.68 437.328 122.68H435.18L435.195 121.469H438.133L438.453 121.906C439 121.953 439.464 122.109 439.844 122.375C440.224 122.635 440.513 122.969 440.711 123.375C440.914 123.781 441.016 124.229 441.016 124.719C441.016 125.427 440.859 126.026 440.547 126.516C440.24 127 439.805 127.37 439.242 127.625C438.68 127.875 438.018 128 437.258 128ZM448.008 126.555V122.203C448.008 121.87 447.94 121.581 447.805 121.336C447.674 121.086 447.477 120.893 447.211 120.758C446.945 120.622 446.617 120.555 446.227 120.555C445.862 120.555 445.542 120.617 445.266 120.742C444.995 120.867 444.781 121.031 444.625 121.234C444.474 121.438 444.398 121.656 444.398 121.891H442.953C442.953 121.589 443.031 121.289 443.188 120.992C443.344 120.695 443.568 120.427 443.859 120.188C444.156 119.943 444.51 119.75 444.922 119.609C445.339 119.464 445.802 119.391 446.312 119.391C446.927 119.391 447.469 119.495 447.938 119.703C448.411 119.911 448.781 120.227 449.047 120.648C449.318 121.065 449.453 121.589 449.453 122.219V126.156C449.453 126.438 449.477 126.737 449.523 127.055C449.576 127.372 449.651 127.646 449.75 127.875V128H448.242C448.169 127.833 448.112 127.612 448.07 127.336C448.029 127.055 448.008 126.794 448.008 126.555ZM448.258 122.875L448.273 123.891H446.812C446.401 123.891 446.034 123.924 445.711 123.992C445.388 124.055 445.117 124.151 444.898 124.281C444.68 124.411 444.513 124.576 444.398 124.773C444.284 124.966 444.227 125.193 444.227 125.453C444.227 125.719 444.286 125.961 444.406 126.18C444.526 126.398 444.706 126.573 444.945 126.703C445.19 126.828 445.49 126.891 445.844 126.891C446.286 126.891 446.677 126.797 447.016 126.609C447.354 126.422 447.622 126.193 447.82 125.922C448.023 125.651 448.133 125.388 448.148 125.133L448.766 125.828C448.729 126.047 448.63 126.289 448.469 126.555C448.307 126.82 448.091 127.076 447.82 127.32C447.555 127.56 447.237 127.76 446.867 127.922C446.503 128.078 446.091 128.156 445.633 128.156C445.06 128.156 444.557 128.044 444.125 127.82C443.698 127.596 443.365 127.297 443.125 126.922C442.891 126.542 442.773 126.117 442.773 125.648C442.773 125.195 442.862 124.797 443.039 124.453C443.216 124.104 443.471 123.815 443.805 123.586C444.138 123.352 444.539 123.174 445.008 123.055C445.477 122.935 446 122.875 446.578 122.875H448.258ZM453.297 116V128H451.844V116H453.297ZM457.188 119.547V128H455.734V119.547H457.188ZM455.625 117.305C455.625 117.07 455.695 116.872 455.836 116.711C455.982 116.549 456.195 116.469 456.477 116.469C456.753 116.469 456.964 116.549 457.109 116.711C457.26 116.872 457.336 117.07 457.336 117.305C457.336 117.529 457.26 117.721 457.109 117.883C456.964 118.039 456.753 118.117 456.477 118.117C456.195 118.117 455.982 118.039 455.836 117.883C455.695 117.721 455.625 117.529 455.625 117.305ZM466.859 126.969C467.203 126.969 467.521 126.898 467.812 126.758C468.104 126.617 468.344 126.424 468.531 126.18C468.719 125.93 468.826 125.646 468.852 125.328H470.227C470.201 125.828 470.031 126.294 469.719 126.727C469.411 127.154 469.008 127.5 468.508 127.766C468.008 128.026 467.458 128.156 466.859 128.156C466.224 128.156 465.669 128.044 465.195 127.82C464.727 127.596 464.336 127.289 464.023 126.898C463.716 126.508 463.484 126.06 463.328 125.555C463.177 125.044 463.102 124.505 463.102 123.938V123.609C463.102 123.042 463.177 122.505 463.328 122C463.484 121.49 463.716 121.039 464.023 120.648C464.336 120.258 464.727 119.951 465.195 119.727C465.669 119.503 466.224 119.391 466.859 119.391C467.521 119.391 468.099 119.526 468.594 119.797C469.089 120.062 469.477 120.427 469.758 120.891C470.044 121.349 470.201 121.87 470.227 122.453H468.852C468.826 122.104 468.727 121.789 468.555 121.508C468.388 121.227 468.159 121.003 467.867 120.836C467.581 120.664 467.245 120.578 466.859 120.578C466.417 120.578 466.044 120.667 465.742 120.844C465.445 121.016 465.208 121.25 465.031 121.547C464.859 121.839 464.734 122.164 464.656 122.523C464.583 122.878 464.547 123.24 464.547 123.609V123.938C464.547 124.307 464.583 124.672 464.656 125.031C464.729 125.391 464.852 125.716 465.023 126.008C465.201 126.299 465.438 126.534 465.734 126.711C466.036 126.883 466.411 126.969 466.859 126.969ZM475.359 128.156C474.771 128.156 474.237 128.057 473.758 127.859C473.284 127.656 472.875 127.372 472.531 127.008C472.193 126.643 471.932 126.211 471.75 125.711C471.568 125.211 471.477 124.664 471.477 124.07V123.742C471.477 123.055 471.578 122.443 471.781 121.906C471.984 121.365 472.26 120.906 472.609 120.531C472.958 120.156 473.354 119.872 473.797 119.68C474.24 119.487 474.698 119.391 475.172 119.391C475.776 119.391 476.297 119.495 476.734 119.703C477.177 119.911 477.539 120.203 477.82 120.578C478.102 120.948 478.31 121.385 478.445 121.891C478.581 122.391 478.648 122.938 478.648 123.531V124.18H472.336V123H477.203V122.891C477.182 122.516 477.104 122.151 476.969 121.797C476.839 121.443 476.63 121.151 476.344 120.922C476.057 120.693 475.667 120.578 475.172 120.578C474.844 120.578 474.542 120.648 474.266 120.789C473.99 120.924 473.753 121.128 473.555 121.398C473.357 121.669 473.203 122 473.094 122.391C472.984 122.781 472.93 123.232 472.93 123.742V124.07C472.93 124.471 472.984 124.849 473.094 125.203C473.208 125.552 473.372 125.859 473.586 126.125C473.805 126.391 474.068 126.599 474.375 126.75C474.688 126.901 475.042 126.977 475.438 126.977C475.948 126.977 476.38 126.872 476.734 126.664C477.089 126.456 477.398 126.177 477.664 125.828L478.539 126.523C478.357 126.799 478.125 127.062 477.844 127.312C477.562 127.562 477.216 127.766 476.805 127.922C476.398 128.078 475.917 128.156 475.359 128.156ZM481.773 121.227V128H480.32V119.547H481.695L481.773 121.227ZM481.477 123.453L480.805 123.43C480.81 122.852 480.885 122.318 481.031 121.828C481.177 121.333 481.393 120.904 481.68 120.539C481.966 120.174 482.323 119.893 482.75 119.695C483.177 119.492 483.672 119.391 484.234 119.391C484.63 119.391 484.995 119.448 485.328 119.562C485.661 119.672 485.951 119.846 486.195 120.086C486.44 120.326 486.63 120.633 486.766 121.008C486.901 121.383 486.969 121.836 486.969 122.367V128H485.523V122.438C485.523 121.995 485.448 121.641 485.297 121.375C485.151 121.109 484.943 120.917 484.672 120.797C484.401 120.672 484.083 120.609 483.719 120.609C483.292 120.609 482.935 120.685 482.648 120.836C482.362 120.987 482.133 121.195 481.961 121.461C481.789 121.727 481.664 122.031 481.586 122.375C481.513 122.714 481.477 123.073 481.477 123.453ZM486.953 122.656L485.984 122.953C485.99 122.49 486.065 122.044 486.211 121.617C486.362 121.19 486.578 120.81 486.859 120.477C487.146 120.143 487.497 119.88 487.914 119.688C488.331 119.49 488.807 119.391 489.344 119.391C489.797 119.391 490.198 119.451 490.547 119.57C490.901 119.69 491.198 119.875 491.438 120.125C491.682 120.37 491.867 120.685 491.992 121.07C492.117 121.456 492.18 121.914 492.18 122.445V128H490.727V122.43C490.727 121.956 490.651 121.589 490.5 121.328C490.354 121.062 490.146 120.878 489.875 120.773C489.609 120.664 489.292 120.609 488.922 120.609C488.604 120.609 488.323 120.664 488.078 120.773C487.833 120.883 487.628 121.034 487.461 121.227C487.294 121.414 487.167 121.63 487.078 121.875C486.995 122.12 486.953 122.38 486.953 122.656ZM497.875 128.156C497.286 128.156 496.753 128.057 496.273 127.859C495.799 127.656 495.391 127.372 495.047 127.008C494.708 126.643 494.448 126.211 494.266 125.711C494.083 125.211 493.992 124.664 493.992 124.07V123.742C493.992 123.055 494.094 122.443 494.297 121.906C494.5 121.365 494.776 120.906 495.125 120.531C495.474 120.156 495.87 119.872 496.312 119.68C496.755 119.487 497.214 119.391 497.688 119.391C498.292 119.391 498.812 119.495 499.25 119.703C499.693 119.911 500.055 120.203 500.336 120.578C500.617 120.948 500.826 121.385 500.961 121.891C501.096 122.391 501.164 122.938 501.164 123.531V124.18H494.852V123H499.719V122.891C499.698 122.516 499.62 122.151 499.484 121.797C499.354 121.443 499.146 121.151 498.859 120.922C498.573 120.693 498.182 120.578 497.688 120.578C497.359 120.578 497.057 120.648 496.781 120.789C496.505 120.924 496.268 121.128 496.07 121.398C495.872 121.669 495.719 122 495.609 122.391C495.5 122.781 495.445 123.232 495.445 123.742V124.07C495.445 124.471 495.5 124.849 495.609 125.203C495.724 125.552 495.888 125.859 496.102 126.125C496.32 126.391 496.583 126.599 496.891 126.75C497.203 126.901 497.557 126.977 497.953 126.977C498.464 126.977 498.896 126.872 499.25 126.664C499.604 126.456 499.914 126.177 500.18 125.828L501.055 126.523C500.872 126.799 500.641 127.062 500.359 127.312C500.078 127.562 499.732 127.766 499.32 127.922C498.914 128.078 498.432 128.156 497.875 128.156ZM504.297 120.875V128H502.852V119.547H504.258L504.297 120.875ZM506.938 119.5L506.93 120.844C506.81 120.818 506.695 120.802 506.586 120.797C506.482 120.786 506.362 120.781 506.227 120.781C505.893 120.781 505.599 120.833 505.344 120.938C505.089 121.042 504.872 121.188 504.695 121.375C504.518 121.562 504.378 121.786 504.273 122.047C504.174 122.302 504.109 122.583 504.078 122.891L503.672 123.125C503.672 122.615 503.721 122.135 503.82 121.688C503.924 121.24 504.083 120.844 504.297 120.5C504.51 120.151 504.781 119.88 505.109 119.688C505.443 119.49 505.839 119.391 506.297 119.391C506.401 119.391 506.521 119.404 506.656 119.43C506.792 119.451 506.885 119.474 506.938 119.5ZM509.844 116V128H508.391V116H509.844ZM517.148 126.555V122.203C517.148 121.87 517.081 121.581 516.945 121.336C516.815 121.086 516.617 120.893 516.352 120.758C516.086 120.622 515.758 120.555 515.367 120.555C515.003 120.555 514.682 120.617 514.406 120.742C514.135 120.867 513.922 121.031 513.766 121.234C513.615 121.438 513.539 121.656 513.539 121.891H512.094C512.094 121.589 512.172 121.289 512.328 120.992C512.484 120.695 512.708 120.427 513 120.188C513.297 119.943 513.651 119.75 514.062 119.609C514.479 119.464 514.943 119.391 515.453 119.391C516.068 119.391 516.609 119.495 517.078 119.703C517.552 119.911 517.922 120.227 518.188 120.648C518.458 121.065 518.594 121.589 518.594 122.219V126.156C518.594 126.438 518.617 126.737 518.664 127.055C518.716 127.372 518.792 127.646 518.891 127.875V128H517.383C517.31 127.833 517.253 127.612 517.211 127.336C517.169 127.055 517.148 126.794 517.148 126.555ZM517.398 122.875L517.414 123.891H515.953C515.542 123.891 515.174 123.924 514.852 123.992C514.529 124.055 514.258 124.151 514.039 124.281C513.82 124.411 513.654 124.576 513.539 124.773C513.424 124.966 513.367 125.193 513.367 125.453C513.367 125.719 513.427 125.961 513.547 126.18C513.667 126.398 513.846 126.573 514.086 126.703C514.331 126.828 514.63 126.891 514.984 126.891C515.427 126.891 515.818 126.797 516.156 126.609C516.495 126.422 516.763 126.193 516.961 125.922C517.164 125.651 517.273 125.388 517.289 125.133L517.906 125.828C517.87 126.047 517.771 126.289 517.609 126.555C517.448 126.82 517.232 127.076 516.961 127.32C516.695 127.56 516.378 127.76 516.008 127.922C515.643 128.078 515.232 128.156 514.773 128.156C514.201 128.156 513.698 128.044 513.266 127.82C512.839 127.596 512.505 127.297 512.266 126.922C512.031 126.542 511.914 126.117 511.914 125.648C511.914 125.195 512.003 124.797 512.18 124.453C512.357 124.104 512.612 123.815 512.945 123.586C513.279 123.352 513.68 123.174 514.148 123.055C514.617 122.935 515.141 122.875 515.719 122.875H517.398ZM522.312 121.352V128H520.867V119.547H522.234L522.312 121.352ZM521.969 123.453L521.367 123.43C521.372 122.852 521.458 122.318 521.625 121.828C521.792 121.333 522.026 120.904 522.328 120.539C522.63 120.174 522.99 119.893 523.406 119.695C523.828 119.492 524.294 119.391 524.805 119.391C525.221 119.391 525.596 119.448 525.93 119.562C526.263 119.672 526.547 119.849 526.781 120.094C527.021 120.339 527.203 120.656 527.328 121.047C527.453 121.432 527.516 121.904 527.516 122.461V128H526.062V122.445C526.062 122.003 525.997 121.648 525.867 121.383C525.737 121.112 525.547 120.917 525.297 120.797C525.047 120.672 524.74 120.609 524.375 120.609C524.016 120.609 523.688 120.685 523.391 120.836C523.099 120.987 522.846 121.195 522.633 121.461C522.424 121.727 522.26 122.031 522.141 122.375C522.026 122.714 521.969 123.073 521.969 123.453ZM535.188 119.547H536.5V127.82C536.5 128.565 536.349 129.201 536.047 129.727C535.745 130.253 535.323 130.651 534.781 130.922C534.245 131.198 533.625 131.336 532.922 131.336C532.63 131.336 532.286 131.289 531.891 131.195C531.5 131.107 531.115 130.953 530.734 130.734C530.359 130.521 530.044 130.232 529.789 129.867L530.547 129.008C530.901 129.435 531.271 129.732 531.656 129.898C532.047 130.065 532.432 130.148 532.812 130.148C533.271 130.148 533.667 130.062 534 129.891C534.333 129.719 534.591 129.464 534.773 129.125C534.961 128.792 535.055 128.38 535.055 127.891V121.406L535.188 119.547ZM529.367 123.867V123.703C529.367 123.057 529.443 122.471 529.594 121.945C529.75 121.414 529.971 120.958 530.258 120.578C530.549 120.198 530.901 119.906 531.312 119.703C531.724 119.495 532.188 119.391 532.703 119.391C533.234 119.391 533.698 119.484 534.094 119.672C534.495 119.854 534.833 120.122 535.109 120.477C535.391 120.826 535.612 121.247 535.773 121.742C535.935 122.237 536.047 122.797 536.109 123.422V124.141C536.052 124.76 535.94 125.318 535.773 125.812C535.612 126.307 535.391 126.729 535.109 127.078C534.833 127.427 534.495 127.695 534.094 127.883C533.693 128.065 533.224 128.156 532.688 128.156C532.182 128.156 531.724 128.049 531.312 127.836C530.906 127.622 530.557 127.323 530.266 126.938C529.974 126.552 529.75 126.099 529.594 125.578C529.443 125.052 529.367 124.482 529.367 123.867ZM530.812 123.703V123.867C530.812 124.289 530.854 124.685 530.938 125.055C531.026 125.424 531.159 125.75 531.336 126.031C531.518 126.312 531.75 126.534 532.031 126.695C532.312 126.852 532.648 126.93 533.039 126.93C533.518 126.93 533.914 126.828 534.227 126.625C534.539 126.422 534.786 126.154 534.969 125.82C535.156 125.487 535.302 125.125 535.406 124.734V122.852C535.349 122.565 535.26 122.289 535.141 122.023C535.026 121.753 534.875 121.513 534.688 121.305C534.505 121.091 534.279 120.922 534.008 120.797C533.737 120.672 533.419 120.609 533.055 120.609C532.659 120.609 532.318 120.693 532.031 120.859C531.75 121.021 531.518 121.245 531.336 121.531C531.159 121.812 531.026 122.141 530.938 122.516C530.854 122.885 530.812 123.281 530.812 123.703Z" fill="#EB1D36"/>
<path d="M894.65 20.0596C900.758 36.3925 920.749 33.9347 934.314 30.4461C937.567 29.5739 940.899 28.6225 943.834 26.9575C946.769 25.2925 949.228 22.5968 950.18 19.346C951.211 15.6989 950.021 11.6553 947.959 8.48384C946.055 5.55026 943.278 2.45811 940.343 0.555243C939.074 3.80597 934.552 4.04383 931.458 4.04383C927.095 4.04383 923.129 2.37882 919.083 1.18953C914.958 0.000240743 910.515 -0.237617 906.39 0.872387C898.061 2.85454 891.397 11.3381 894.65 20.0596Z" fill="#EB1D36"/>
<path d="M907.104 129.395C906.866 129.395 906.787 129.395 906.628 129.474L907.104 129.395Z" fill="#EB1D36"/>
<path d="M907.104 129.395C906.866 129.395 906.787 129.395 906.628 129.474L907.104 129.395Z" fill="#EB1D36"/>
<path d="M889.493 49.8708V34.5686C889.493 21.5657 901.631 10.9414 916.465 10.9414C923.843 10.9414 930.586 13.5578 935.504 17.8393C940.423 22.1207 943.437 27.9879 943.437 34.4894V49.7916" stroke="#EB1D36" stroke-width="2" stroke-miterlimit="10"/>
<path d="M943.437 66.4414V84.1222C943.437 97.1251 931.3 107.749 916.465 107.749C901.631 107.749 889.493 97.1251 889.493 84.1222V66.4414" stroke="#EB1D36" stroke-width="2" stroke-miterlimit="10"/>
<path d="M900.441 71.9125C908.02 71.9125 914.165 65.7714 914.165 58.196C914.165 50.6206 908.02 44.4795 900.441 44.4795C892.861 44.4795 886.717 50.6206 886.717 58.196C886.717 65.7714 892.861 71.9125 900.441 71.9125Z" stroke="#EB1D36" stroke-width="2" stroke-miterlimit="10"/>
<path d="M932.41 71.9125C939.99 71.9125 946.134 65.7714 946.134 58.196C946.134 50.6206 939.99 44.4795 932.41 44.4795C924.831 44.4795 918.686 50.6206 918.686 58.196C918.686 65.7714 924.831 71.9125 932.41 71.9125Z" stroke="#EB1D36" stroke-width="2" stroke-miterlimit="10"/>
<path d="M914.085 57.7998H918.845" stroke="#EB1D36" stroke-width="4" stroke-miterlimit="10"/>
<path d="M927.492 105.609H927.571V130.426" stroke="#EB1D36" stroke-width="2" stroke-miterlimit="10"/>
<path d="M907.739 130.108V106.243" stroke="#EB1D36" stroke-width="2" stroke-miterlimit="10"/>
<path d="M900.441 61.3673C902.193 61.3673 903.614 59.9474 903.614 58.1959C903.614 56.4443 902.193 55.0244 900.441 55.0244C898.688 55.0244 897.268 56.4443 897.268 58.1959C897.268 59.9474 898.688 61.3673 900.441 61.3673Z" fill="#EB1D36"/>
<path d="M932.41 61.3673C934.163 61.3673 935.583 59.9474 935.583 58.1959C935.583 56.4443 934.163 55.0244 932.41 55.0244C930.658 55.0244 929.237 56.4443 929.237 58.1959C929.237 59.9474 930.658 61.3673 932.41 61.3673Z" fill="#EB1D36"/>
<path d="M887.669 63.3496H886.082C884.337 63.3496 882.75 64.0632 881.56 65.1732C880.45 66.3625 879.736 67.9482 879.736 69.6925C879.736 73.1811 882.592 76.0354 886.082 76.0354H889.255" stroke="#EB1D36" stroke-width="2" stroke-miterlimit="10"/>
<path d="M945.182 63.3496H946.769C950.259 63.3496 953.115 66.2039 953.115 69.6925C953.115 71.4368 952.401 73.0225 951.211 74.2118C950.101 75.3218 948.514 76.0354 946.769 76.0354H943.596" stroke="#EB1D36" stroke-width="2" stroke-miterlimit="10"/>
<path d="M889.335 67.7891V71.5948H886.796C885.765 71.5948 884.892 70.7226 884.892 69.6919C884.892 69.1369 885.13 68.6612 885.448 68.3441C885.765 68.0269 886.241 67.7891 886.796 67.7891H889.335Z" fill="#EB1D36"/>
<path d="M943.596 71.5948V67.7891H946.134C947.166 67.7891 948.038 68.6612 948.038 69.6919C948.038 70.2469 947.8 70.7226 947.483 71.0398C947.166 71.3569 946.69 71.5948 946.134 71.5948H943.596Z" fill="#EB1D36"/>
<path d="M916.465 71.2783C916.465 71.2783 912.499 77.6212 918.845 76.0355" stroke="#EB1D36" stroke-width="2" stroke-miterlimit="10" stroke-linecap="round"/>
<path d="M909.326 89.5928C909.326 89.5928 915.672 97.4421 924.398 89.5928" stroke="#EB1D36" stroke-width="2" stroke-miterlimit="10" stroke-linecap="round"/>
<path d="M894.253 41.9423C894.253 41.9423 898.616 37.5816 906.152 41.1495" stroke="#EB1D36" stroke-width="3" stroke-miterlimit="10" stroke-linecap="round"/>
<path d="M938.677 41.9423C938.677 41.9423 934.314 37.5816 926.778 41.1495" stroke="#EB1D36" stroke-width="3" stroke-miterlimit="10" stroke-linecap="round"/>
<path d="M889.335 32.9034C889.335 32.9034 878.387 24.4198 883.147 14.1126C887.907 3.80545 902.979 9.35547 902.979 9.35547C902.979 9.35547 909.008 35.0441 889.335 32.9034Z" fill="#EB1D36"/>
<path d="M834.915 96.2536C833.963 93.1614 832.614 91.655 831.9 87.1357C830.393 78.0971 830.948 69.4549 827.22 69.772C825.713 69.9306 825.237 71.5163 825.316 72.3885L826.506 86.66C826.03 88.325 825.157 87.6907 825.157 87.6907C825.157 87.6907 822.064 75.0049 821.667 72.7056C821.27 70.4856 820.16 69.217 818.652 69.3756C816.035 69.6135 817.066 72.7849 817.304 73.9742L820.08 89.3557C820.318 90.8621 818.732 90.3864 818.732 90.3864L812.544 75.0049C811.83 73.3399 810.481 73.7363 810.481 73.7363C808.022 74.2913 808.974 76.5113 808.974 76.5113L814.289 92.8443C814.289 92.9235 814.289 93.0028 814.289 93.0821C814.369 93.9543 813.258 94.43 812.782 93.6371C811.116 91.1 807.864 87.0564 805.166 85.4707C803.818 84.6778 802.866 84.8364 802.311 85.2328C801.755 85.6292 801.676 86.3428 802.073 86.8978L811.989 101.249C814.289 116.471 823.571 118.295 823.571 118.295L829.124 140.019L837.295 174.271L838.326 178.632C839.278 182.834 843.086 185.847 847.37 185.847H851.733C854.826 185.847 856.968 182.834 856.016 179.98L836.263 119.881L835.391 114.648C837.295 112.507 838.564 107.988 839.199 104.737C839.595 102.993 839.754 101.169 839.595 99.425C839.278 95.0643 842.213 87.215 842.213 87.215C841.975 85.7085 839.119 86.9771 839.119 86.9771C835.946 88.0871 835.153 93.1614 834.915 95.9364C834.836 97.1257 834.28 98.1564 833.487 98.9493C828.727 103.627 828.331 108.86 828.331 108.86" stroke="#EB1D36" stroke-width="2" stroke-miterlimit="10"/>
<path d="M821.588 72.7843C821.191 70.5643 820.477 68.8992 818.573 69.4542C816.035 70.1678 816.986 72.8635 817.224 74.0528" stroke="#EB1D36" stroke-width="2" stroke-miterlimit="10"/>
<path d="M975.962 190.207V191H958.668L955.019 170.782V191H880.132V179.503C880.132 176.728 880.132 173.953 880.212 171.178C878.546 172.526 876.721 173.636 874.579 174.825L858 185.925C857.92 186.005 857.841 186.005 857.762 186.084C857.048 186.48 856.254 186.718 855.382 186.718L851.934 186.849C851.934 186.849 855.62 185.45 856.492 181.961L850.543 162.14C859.031 155.083 872.755 134.707 899.092 130.505C900.203 130.267 901.393 130.029 902.662 129.87C903.852 129.712 905.042 129.553 906.39 129.474L907.263 129.395V129.553L906.787 129.632C906.946 129.632 907.025 129.632 907.184 129.553H907.263C907.422 129.553 907.58 129.553 907.739 129.474H907.818L908.612 129.395V132.407C908.612 132.804 908.77 133.28 909.167 133.676C910.357 135.024 913.054 136.055 916.307 136.292C916.862 136.372 917.417 136.372 917.972 136.372C918.052 136.372 918.131 136.372 918.131 136.372H918.21C921.384 136.292 924.319 135.42 925.826 134.152C926.302 133.755 926.778 133.2 926.778 132.407V129.632L927.571 129.791H927.73C927.968 129.791 928.127 129.87 928.365 129.87V129.632L929.396 129.791C958.51 133.359 975.962 155.955 975.962 190.207Z" fill="#EB1D36"/>
<path d="M857.92 185.847L857.682 186.005C857.762 186.005 857.841 185.926 857.92 185.847Z" fill="#EB1D36"/>
</svg>
