<svg width="15" height="15" viewBox="0 0 15 15" fill="none" xmlns="http://www.w3.org/2000/svg">
<path d="M3.94579 13.1219H10.6928C10.991 13.1219 11.277 13.0035 11.4879 12.7926C11.6988 12.5817 11.8173 12.2957 11.8173 11.9974V5.25045L8.44378 1.87695H3.94579C3.64755 1.87695 3.36153 1.99543 3.15065 2.20631C2.93976 2.4172 2.82129 2.70322 2.82129 3.00145V11.9974C2.82129 12.2957 2.93976 12.5817 3.15065 12.7926C3.36153 13.0035 3.64755 13.1219 3.94579 13.1219ZM7.88153 3.00145L10.6928 5.8127H7.88153V3.00145ZM5.35141 6.93719C5.4622 6.93723 5.5719 6.95909 5.67424 7.00152C5.77658 7.04395 5.86957 7.10613 5.94788 7.18449C6.0262 7.26286 6.08831 7.35589 6.13067 7.45826C6.17303 7.56063 6.19482 7.67034 6.19478 7.78113C6.19475 7.89192 6.17289 8.00162 6.13046 8.10396C6.08802 8.2063 6.02585 8.29929 5.94748 8.3776C5.86912 8.45592 5.77609 8.51803 5.67372 8.56039C5.57135 8.60276 5.46164 8.62454 5.35085 8.6245C5.1271 8.62443 4.91254 8.53547 4.75438 8.3772C4.59621 8.21894 4.5074 8.00432 4.50747 7.78057C4.50755 7.55682 4.5965 7.34226 4.75477 7.1841C4.91304 7.02593 5.12766 6.93712 5.35141 6.93719ZM5.63253 9.74844L6.53045 10.5148L7.88153 8.06169L10.1305 11.4352H4.50804L5.63253 9.74844Z" fill="#EB1D36"/>
</svg>
