<svg width="24" height="25" viewBox="0 0 24 25" fill="none" xmlns="http://www.w3.org/2000/svg">
<path d="M18.0634 21.7032L18.0628 21.7029L13.1872 18.9954C13.1864 18.9949 13.1856 18.9945 13.1849 18.994C12.836 18.7964 12.4085 18.7125 12.0088 18.7125C11.6078 18.7125 11.1789 18.7969 10.8267 18.9932C10.8267 18.9932 10.8266 18.9933 10.8265 18.9933L5.9489 21.702C5.94863 21.7022 5.94837 21.7023 5.94811 21.7024C5.25469 22.084 4.73419 22.0526 4.4163 21.8654C4.09868 21.6784 3.82007 21.2395 3.82007 20.45V6.36C3.82007 4.5153 5.32705 3 7.18007 3H16.8201C18.6722 3 20.1807 4.51472 20.1901 6.36119V20.45C20.1901 21.2459 19.9106 21.6864 19.5938 21.8729C19.2773 22.0593 18.7577 22.0899 18.0634 21.7032ZM9.50007 12.4H14.5001C15.1862 12.4 15.7501 11.8361 15.7501 11.15C15.7501 10.4639 15.1862 9.9 14.5001 9.9H9.50007C8.81393 9.9 8.25007 10.4639 8.25007 11.15C8.25007 11.8361 8.81393 12.4 9.50007 12.4Z" fill="white" stroke="white"/>
</svg>
