<svg width="24" height="25" viewBox="0 0 24 25" fill="none" xmlns="http://www.w3.org/2000/svg">
<path d="M19.14 20.75C18.95 20.75 18.76 20.68 18.61 20.54C18.31 20.25 18.31 19.78 18.6 19.48C20.31 17.74 21.25 15.44 21.25 13C21.25 7.9 17.1 3.75 12 3.75C6.9 3.75 2.75 7.9 2.75 13C2.75 15.43 3.68 17.72 5.38 19.46C5.67 19.76 5.66 20.23 5.37 20.52C5.07 20.81 4.6 20.8 4.31 20.51C2.34 18.49 1.25 15.82 1.25 13C1.25 7.07 6.07 2.25 12 2.25C17.93 2.25 22.75 7.07 22.75 13C22.75 15.83 21.66 18.51 19.67 20.53C19.53 20.68 19.33 20.75 19.14 20.75Z" fill="white"/>
<path d="M12.0001 22.5002C14.143 22.5002 15.8801 20.7631 15.8801 18.6202C15.8801 16.4774 14.143 14.7402 12.0001 14.7402C9.85725 14.7402 8.12012 16.4774 8.12012 18.6202C8.12012 20.7631 9.85725 22.5002 12.0001 22.5002Z" fill="white"/>
<path d="M16 9C14.9 9 14 9.9 14 11V11.75C14 12.44 14.56 13 15.25 13H16C17.1 13 18 12.1 18 11C18 9.9 17.1 9 16 9Z" fill="white"/>
</svg>
