<svg width="56" height="56" viewBox="0 0 56 56" fill="none" xmlns="http://www.w3.org/2000/svg">
<mask id="mask0_1334_7374" style="mask-type:alpha" maskUnits="userSpaceOnUse" x="5" y="2" width="46" height="52">
<path d="M10.5 51.3334L28 25.6667M45.5 51.3334L28 25.6667" stroke="white" stroke-width="4" stroke-linecap="round"/>
<path d="M10.654 28C10.5512 27.2265 10.4998 26.447 10.5 25.6667C10.4966 23.0212 11.0951 20.4097 12.25 18.0297M13.0153 34.7118C14.2664 36.7825 15.9327 38.5716 17.9093 39.9664C19.8859 41.3613 22.1299 42.3318 24.5 42.8167M31.5 42.8167C33.8953 42.3264 36.1615 41.3403 38.1529 39.9217C40.1443 38.5032 41.8168 36.6836 43.0628 34.58M45.346 28C45.4475 27.237 45.5 26.4577 45.5 25.6667C45.5038 23.0212 44.9054 20.4095 43.75 18.0297M31.5 8.51666C34.5388 9.13544 37.3578 10.553 39.6667 12.6233M24.5 8.51666C21.1324 9.20186 18.0422 10.8663 15.617 13.3012" stroke="white" stroke-width="4"/>
<path d="M11.6665 35C13.5995 35 15.1665 33.433 15.1665 31.5C15.1665 29.567 13.5995 28 11.6665 28C9.73351 28 8.1665 29.567 8.1665 31.5C8.1665 33.433 9.73351 35 11.6665 35Z" fill="white" stroke="white" stroke-width="4"/>
<path d="M28 46.6667C29.933 46.6667 31.5 45.0997 31.5 43.1667C31.5 41.2337 29.933 39.6667 28 39.6667C26.067 39.6667 24.5 41.2337 24.5 43.1667C24.5 45.0997 26.067 46.6667 28 46.6667Z" fill="white" stroke="white" stroke-width="4"/>
<path d="M28 11.6667C29.933 11.6667 31.5 10.0997 31.5 8.16669C31.5 6.23369 29.933 4.66669 28 4.66669C26.067 4.66669 24.5 6.23369 24.5 8.16669C24.5 10.0997 26.067 11.6667 28 11.6667Z" fill="white" stroke="white" stroke-width="4"/>
<path d="M14 18.6667C15.933 18.6667 17.5 17.0997 17.5 15.1667C17.5 13.2337 15.933 11.6667 14 11.6667C12.067 11.6667 10.5 13.2337 10.5 15.1667C10.5 17.0997 12.067 18.6667 14 18.6667Z" fill="white" stroke="white" stroke-width="4"/>
<path d="M42 18.6667C43.933 18.6667 45.5 17.0997 45.5 15.1667C45.5 13.2337 43.933 11.6667 42 11.6667C40.067 11.6667 38.5 13.2337 38.5 15.1667C38.5 17.0997 40.067 18.6667 42 18.6667Z" fill="white" stroke="white" stroke-width="4"/>
<path d="M44.3335 35C46.2665 35 47.8335 33.433 47.8335 31.5C47.8335 29.567 46.2665 28 44.3335 28C42.4005 28 40.8335 29.567 40.8335 31.5C40.8335 33.433 42.4005 35 44.3335 35Z" fill="white" stroke="white" stroke-width="4"/>
<path d="M28.0002 30.3333C30.5775 30.3333 32.6668 28.244 32.6668 25.6667C32.6668 23.0893 30.5775 21 28.0002 21C25.4228 21 23.3335 23.0893 23.3335 25.6667C23.3335 28.244 25.4228 30.3333 28.0002 30.3333Z" fill="white"/>
<path d="M7 51.3334H16.3333M39.6667 51.3334H49" stroke="white" stroke-width="4" stroke-linecap="round" stroke-linejoin="round"/>
</mask>
<g mask="url(#mask0_1334_7374)">
<path d="M0 0H56V56H0V0Z" fill="black"/>
</g>
</svg>
