<svg width="24" height="25" viewBox="0 0 24 25" fill="none" xmlns="http://www.w3.org/2000/svg">
<path d="M12.89 6.37988H5.11C3.4 6.37988 2 7.77988 2 9.48988V20.8499C2 22.2999 3.04 22.9199 4.31 22.2099L8.24 20.0199C8.66 19.7899 9.34 19.7899 9.75 20.0199L13.68 22.2099C14.96 22.9099 16 22.2999 16 20.8499V9.48988C16 7.77988 14.6 6.37988 12.89 6.37988Z" fill="white"/>
<path d="M22.0001 5.61V16.97C22.0001 18.42 20.9601 19.03 19.6901 18.33L17.7601 17.25C17.6001 17.16 17.5001 16.99 17.5001 16.81V9.49C17.5001 6.95 15.4301 4.88 12.8901 4.88H8.82008C8.45008 4.88 8.19008 4.49 8.36008 4.17C8.88008 3.18 9.92008 2.5 11.1101 2.5H18.8901C20.6001 2.5 22.0001 3.9 22.0001 5.61Z" fill="white"/>
</svg>
