<svg width="25" height="23" viewBox="0 0 25 23" fill="none" xmlns="http://www.w3.org/2000/svg">
<path d="M16.5138 3.1061C12.8529 -0.159066 6.89464 -0.159066 3.2338 3.1061C-0.426242 6.37198 -0.426242 11.6856 3.2338 14.9515C6.49388 17.8585 11.5713 18.1699 15.2297 15.8999C15.3067 16.2248 15.4829 16.5348 15.7662 16.7875L21.0976 21.5427C21.8745 22.2342 23.1299 22.2342 23.9029 21.5427C24.679 20.8504 24.679 19.7306 23.9029 19.0405L18.5716 14.284C18.2898 14.0334 17.9414 13.8756 17.5772 13.8069C20.1238 10.5432 19.7746 6.01524 16.5138 3.1061ZM14.8306 13.4502C12.0974 15.8879 7.64935 15.8879 4.91701 13.4502C2.18547 11.0124 2.18547 7.04582 4.91701 4.60809C7.64935 2.17107 12.0974 2.17107 14.8306 4.60809C17.5637 7.04582 17.5637 11.0124 14.8306 13.4502Z" fill="#E01919"/>
</svg>
