<svg width="24" height="24" viewBox="0 0 24 24" fill="none" xmlns="http://www.w3.org/2000/svg">
<path d="M17.75 16.75V17.25H18.25H20.5C20.6339 17.25 20.75 17.3661 20.75 17.5C20.75 17.6339 20.6339 17.75 20.5 17.75H18.25H17.75V18.25V20.5C17.75 20.6339 17.6339 20.75 17.5 20.75C17.3661 20.75 17.25 20.6339 17.25 20.5V18.25V17.75H16.75H14.5C14.3661 17.75 14.25 17.6339 14.25 17.5C14.25 17.3661 14.3661 17.25 14.5 17.25H16.75H17.25V16.75V14.5C17.25 14.3661 17.3661 14.25 17.5 14.25C17.6339 14.25 17.75 14.3661 17.75 14.5V16.75Z" fill="white" stroke="white"/>
<path d="M22 8.52V3.98C22 2.57 21.36 2 19.77 2H15.73C14.14 2 13.5 2.57 13.5 3.98V8.51C13.5 9.93 14.14 10.49 15.73 10.49H19.77C21.36 10.5 22 9.93 22 8.52Z" fill="white"/>
<path d="M10.5 8.52V3.98C10.5 2.57 9.86 2 8.27 2H4.23C2.64 2 2 2.57 2 3.98V8.51C2 9.93 2.64 10.49 4.23 10.49H8.27C9.86 10.5 10.5 9.93 10.5 8.52Z" fill="white"/>
<path d="M10.5 19.77V15.73C10.5 14.14 9.86 13.5 8.27 13.5H4.23C2.64 13.5 2 14.14 2 15.73V19.77C2 21.36 2.64 22 4.23 22H8.27C9.86 22 10.5 21.36 10.5 19.77Z" fill="white"/>
</svg>
