<svg width="24" height="25" viewBox="0 0 24 25" fill="none" xmlns="http://www.w3.org/2000/svg">
<path d="M21.49 8.30863V8.31V16.69C21.49 18.4106 20.9791 19.7238 20.0964 20.6064C19.2138 21.4891 17.9006 22 16.18 22H7.81C6.08945 22 4.77634 21.4891 3.89377 20.6054C3.01114 19.7217 2.5 18.4059 2.5 16.68V8.31C2.5 6.58944 3.01093 5.27618 3.89355 4.39355C4.77618 3.51093 6.08944 3 7.81 3H16.19C17.9107 3 19.2237 3.51097 20.105 4.39333C20.9861 5.27559 21.4947 6.58838 21.49 8.30863ZM16.4 19.5C17.1993 19.5 17.8889 19.3432 18.3661 18.8661C18.8432 18.3889 19 17.6993 19 16.9V15.1C19 14.3007 18.8432 13.6111 18.3661 13.1339C17.8889 12.6568 17.1993 12.5 16.4 12.5H12.6C11.8007 12.5 11.1111 12.6568 10.6339 13.1339C10.1568 13.6111 10 14.3007 10 15.1V16.9C10 17.6993 10.1568 18.3889 10.6339 18.8661C11.1111 19.3432 11.8007 19.5 12.6 19.5H16.4Z" fill="white" stroke="white"/>
</svg>
