<svg width="19" height="15" viewBox="0 0 19 15" fill="none" xmlns="http://www.w3.org/2000/svg">
<g clip-path="url(#clip0_1212_6404)">
<path d="M6.6551 13.6418C5.63064 13.5763 4.65722 13.2427 3.87384 12.6886C3.09047 12.1346 2.53718 11.3885 2.29299 10.5568C2.04881 9.72505 2.1262 8.85032 2.51413 8.05746C2.90206 7.2646 3.58068 6.59415 4.4531 6.14185C4.63874 4.93565 5.34545 3.82716 6.44099 3.02382C7.53653 2.22048 8.94581 1.77734 10.4051 1.77734C11.8644 1.77734 13.2737 2.22048 14.3692 3.02382C15.4648 3.82716 16.1715 4.93565 16.3571 6.14185C17.2295 6.59415 17.9081 7.2646 18.2961 8.05746C18.684 8.85032 18.7614 9.72505 18.5172 10.5568C18.273 11.3885 17.7197 12.1346 16.9364 12.6886C16.153 13.2427 15.1796 13.5763 14.1551 13.6418V13.6537H6.6551V13.6418ZM11.1551 8.65372H13.4051L10.4051 5.52872L7.4051 8.65372H9.6551V11.1537H11.1551V8.65372Z" fill="#EB1D36"/>
</g>
<defs>
<clipPath id="clip0_1212_6404">
<rect width="18" height="15" fill="white" transform="translate(0.876526)"/>
</clipPath>
</defs>
</svg>
